<svg width="1005" height="332" viewBox="0 0 1005 332" fill="none" xmlns="http://www.w3.org/2000/svg">
<path d="M317.21 153.187C325.555 138.184 344.805 132.079 361.838 134.179C378.871 136.287 394.288 144.967 409.197 153.468C415.848 136.224 432.233 123.118 450.523 120.409C468.813 117.708 488.281 125.506 499.647 140.096C502.215 116.537 522.519 96.1087 546.062 93.3844C569.605 90.6601 594.03 105.921 601.907 128.278C621.32 93.9621 664.902 75.3367 703.121 85.0163C741.339 94.6959 770.792 131.829 771.518 171.25C781.822 157.277 802.039 155.123 819.135 158.136C848.15 163.257 874.933 180.063 892.169 203.966C905.15 193.74 920.536 186.714 936.687 183.233C924.806 181.671 911.84 180.633 898.179 180.219C889.499 125.819 842.374 84.2513 785.53 84.2513C778.083 84.2513 770.799 84.9772 763.751 86.3355C754.758 37.4459 704.128 0 643.021 0C593.382 0 550.667 24.7063 531.558 60.185C524.041 56.1024 515.431 53.7841 506.282 53.7841C480.748 53.7841 459.43 71.8473 454.403 95.8901C449.485 95.4842 444.497 95.2735 439.446 95.2735C412.812 95.2735 387.918 101.058 366.732 111.097C345.812 73.0418 308.108 47.6407 265.058 47.6407C228.135 47.6407 195.154 66.3285 173.312 95.6482C183.265 93.0878 193.499 91.6671 203.795 91.55C248.735 91.0582 293.175 115.21 317.21 153.179V153.187Z" fill="#FFF3F6"/>
<path d="M152.432 208.839C172.899 234.599 210.244 245.434 241.32 234.622C236.855 248.876 245.262 266.807 257.923 274.722C270.585 282.638 287.009 282.942 301.122 278.055C315.236 273.169 327.296 263.614 337.686 252.881C377.107 288.945 427.3 307.016 480.717 308.109C534.142 309.21 587.005 294.526 635.505 272.107C641.89 281.069 653.857 285.659 664.598 283.262C675.339 280.866 684.223 271.631 686.205 260.804C697.532 278.563 727.601 279.281 739.755 262.076C746.601 273.075 760.964 276.604 773.915 277.033C812.922 278.321 852.022 258.977 874.66 227.191C917.984 231.531 962.393 223.873 1001.93 205.685C993.797 195.756 969.325 187.528 936.68 183.243C920.529 186.716 905.143 193.75 892.161 203.976C874.926 180.073 848.143 163.274 819.128 158.146C802.032 155.125 781.814 157.287 771.51 171.26C770.784 131.839 741.324 94.7057 703.113 85.0262C664.895 75.3466 621.313 93.9719 601.899 128.288C594.023 105.931 569.598 90.6699 546.054 93.3943C522.511 96.1186 502.208 116.539 499.639 140.106C488.281 125.524 468.805 117.718 450.516 120.419C432.226 123.12 415.841 136.226 409.19 153.478C394.28 144.969 378.863 136.297 361.83 134.189C344.797 132.081 325.548 138.193 317.203 153.197C293.168 115.22 248.728 91.0681 203.788 91.5677C193.492 91.6848 183.258 93.0977 173.305 95.6659C157.927 116.313 148.068 142.237 146.273 170.636C64.7145 171.76 0.00195313 188.153 0.00195313 208.214C0.00195313 209.291 0.197107 210.353 0.563993 211.407C48.8525 230.477 104.9 230.001 152.416 208.847L152.432 208.839Z" fill="#F1D0D9"/>
<path d="M874.675 227.186C852.03 258.972 812.929 278.315 773.93 277.027C760.979 276.598 746.616 273.07 739.77 262.071C727.616 279.276 697.547 278.557 686.22 260.799C684.245 271.626 675.354 280.86 664.613 283.257C653.872 285.653 641.905 281.063 635.52 272.102C587.02 294.521 534.15 309.204 480.732 308.104C427.307 307.003 377.122 288.94 337.701 252.875C327.319 263.609 315.251 273.164 301.137 278.05C287.024 282.937 270.6 282.64 257.939 274.717C245.277 266.802 236.87 248.871 241.335 234.617C210.259 245.428 172.914 234.594 152.447 208.833C104.923 229.988 48.8833 230.464 0.594727 211.394C7.28456 230.69 73.9721 245.842 155.265 245.842C157.427 245.842 159.574 245.826 161.713 245.811C182.251 285.614 220.844 312.428 265.073 312.428C291.825 312.428 316.508 302.624 336.39 286.067C372.251 313.318 443.411 331.889 525.352 331.889C607.293 331.889 677.29 313.622 713.432 286.738C733.088 302.795 758.193 312.428 785.545 312.428C831.609 312.428 871.287 285.122 889.304 245.827C953.517 245.21 1004.88 230.722 1004.88 212.947C1004.88 210.457 1003.87 208.029 1001.95 205.695C962.416 223.884 918.007 231.541 874.683 227.201L874.675 227.186Z" fill="#C38092"/>
<path d="M305.109 144.942C293.813 158.127 289.442 178.118 297.763 193.73C301.955 171.483 312.368 152.389 331.509 140.36C337.598 136.41 344.35 133.256 352.234 130.353C335.552 124.436 316.42 131.781 305.109 144.95V144.942Z" fill="#FFF3F6"/>
<path d="M543.586 153.864C539.746 153.716 535.741 154.426 532.119 155.964C531.151 150.929 529.465 146.05 526.623 141.819C516.741 127.472 498.03 129.095 488.061 142.217C479.951 152.857 481.333 167.642 485.977 179.304C487.031 170.077 487.796 160.437 492.979 152.716C496.726 147.4 504.118 142.693 510.582 145.472C515.773 148.095 517.373 153.552 518.755 159.274C520.433 166.611 522.861 197.586 523.845 205.681L532.946 171.771C533.68 169.039 535.429 167.306 538.028 165.885C549.191 160.523 561.548 163.216 568.074 174.644C568.019 170.069 565.943 165.386 562.617 161.725C558.184 156.565 550.643 153.692 543.578 153.864H543.586Z" fill="#FFF3F6"/>
<path d="M751.678 174.721C748.454 179.967 745.98 185.681 744.348 191.637C737.307 185.837 728.58 182.168 719.353 182.332C705.661 182.59 691.93 192.792 691.407 206.804C695.825 195.907 708.034 189.943 718.861 191.528C724.045 192.324 728.869 194.619 732.959 197.874C737.073 201.09 740.523 205.259 742.974 209.856L753.333 229.473L755.316 206.929C756.089 198.108 759.039 189.514 763.512 181.817C777.743 156.837 808.07 146.408 835.805 153.044C807.547 134.723 768.61 145.94 751.67 174.713L751.678 174.721Z" fill="#FFF3F6"/>
</svg>
