<svg width="950" height="420" viewBox="0 0 950 420" fill="none" xmlns="http://www.w3.org/2000/svg">
<path d="M272.224 202.694C265.645 191.355 276.673 176.218 289.619 174.134C302.565 172.049 315.215 178.795 326.001 186.254C324.629 169.306 331.11 152.623 339.705 137.956C371.964 82.8905 439.718 49.0401 502.159 62.221C564.599 75.4019 614.185 138.487 606.689 201.86C612.76 188.588 630.572 184.26 644.488 188.679C658.397 193.098 669.198 203.914 679.233 214.51C695.939 180.235 742.424 168.464 778.246 181.539C823.094 197.903 852.586 248.535 844.688 295.627C868.011 288.116 893.789 284.894 918.408 287.502C903.157 281.62 882.799 276.458 858.642 272.305C860.833 263.876 862 255.107 862 246.11C862 180.592 800.696 127.474 725.067 127.474C698.266 127.474 673.261 134.151 652.151 145.68C646.429 64.3963 568.26 0 472.659 0C377.058 0 304.771 59.6591 294.106 136.607C241.906 139.389 196.595 161.271 170.059 193.159C170.93 192.954 171.794 192.749 172.666 192.56C205.698 185.473 240.322 191.574 272.224 202.686V202.694Z" fill="#FFF3F6"/>
<path d="M655.41 331.456C637.871 355.885 613.085 376.077 583.919 383.421C554.753 390.766 521.205 383.611 500.794 361.516C495.912 356.233 491.554 350.011 484.96 347.138C475.917 343.204 465.609 346.698 455.816 347.843C431.804 350.632 406.731 337.14 395.839 315.561C333.997 361.054 242.519 361.1 180.631 315.667C175.682 312.037 170.71 308.05 164.737 306.61C158.135 305.018 151.253 306.769 144.636 308.3C98.9914 318.866 51.0505 319.404 5.18631 309.861C4.84523 309.793 4.50417 309.717 4.16309 309.642C18.2611 326.104 66.71 338.247 124.323 338.247C144.06 338.247 162.721 336.822 179.297 334.283C208.638 362.82 254.229 381.155 305.429 381.155C345.025 381.155 381.263 370.18 409.224 352.012C440.066 392.047 498.05 419.015 564.493 419.015C623.621 419.015 676.041 397.656 708.603 364.738C709.877 364.738 711.158 364.745 712.439 364.745C715.463 364.745 718.465 364.73 721.451 364.707C722.649 364.738 723.854 364.745 725.059 364.745C727.659 364.745 730.243 364.677 732.805 364.556C853.958 362.297 949.074 340.081 949.074 313.007C949.074 309.429 947.406 305.928 944.238 302.555C850.213 326.976 752.406 336.822 655.41 331.463V331.456Z" fill="#C38092"/>
<path d="M144.627 308.308C151.244 306.777 158.127 305.034 164.728 306.618C170.701 308.058 175.666 312.037 180.623 315.676C242.51 361.1 333.988 361.055 395.83 315.569C406.722 337.149 431.795 350.648 455.808 347.851C465.6 346.714 475.909 343.212 484.951 347.146C491.546 350.011 495.904 356.241 500.785 361.524C521.189 383.619 554.744 390.774 583.91 383.43C613.077 376.085 637.855 355.893 655.401 331.464C752.397 336.823 850.205 326.977 944.23 302.555C939.197 297.189 930.374 292.133 918.391 287.51C893.772 284.902 867.994 288.124 844.671 295.635C852.569 248.551 823.077 197.919 778.229 181.547C742.415 168.48 695.922 180.251 679.216 214.518C669.189 203.914 658.38 193.106 644.472 188.687C630.563 184.268 612.743 188.596 606.672 201.868C614.168 138.495 564.583 75.4098 502.142 62.2288C439.701 49.0479 371.947 82.8983 339.688 137.964C331.093 152.638 324.62 169.321 325.984 186.261C315.199 178.803 302.548 172.065 289.602 174.142C276.656 176.226 265.62 191.355 272.207 202.702C240.305 191.59 205.673 185.496 172.649 192.575C171.777 192.765 170.906 192.969 170.042 193.174C154.269 212.131 145.135 234.619 145.135 258.738C145.135 259.761 145.15 260.784 145.188 261.807C138.397 261.451 131.431 261.262 124.314 261.262C55.658 261.262 0.000976563 278.498 0.000976563 299.751C0.000976563 303.169 1.44867 306.481 4.15458 309.642C4.49566 309.718 4.83673 309.786 5.17781 309.862C51.0495 319.412 98.9829 318.874 144.627 308.301V308.308Z" fill="#F1D0D9"/>
<path d="M439.725 237.12C439.255 235.801 438.747 234.497 438.239 233.186C427.825 209.477 398.014 197.713 375.313 211.827C363.952 218.686 355.667 230.586 353.446 243.593C338.659 237.097 320.619 242.175 313.282 257.069C310.447 262.602 309.454 268.946 310.659 274.661C311.849 263.868 319.679 254.098 329.752 251.294C338.757 248.86 349.209 252.203 354.712 259.692L366.893 276.625L365.953 254.932C365.119 239.128 378.52 223.06 393.99 221.263C409.513 219.3 426.415 231.799 429.417 247.413L431.471 257.812C434.874 255.083 441.127 249.55 444.659 247.17C454.831 240.644 467.284 238.135 479.359 239.78C484.338 240.477 489.333 241.864 494.146 244.078C486.188 236.642 475.175 232.716 464.222 232.246C455.854 231.897 447.365 233.542 439.725 237.127V237.12Z" fill="#FFF3F6"/>
<path d="M721.343 227.844C715.522 208.061 691.373 198.245 673.599 209.274C661.729 216.247 653.718 232.157 659.66 245.186C663.882 232.27 675.843 221.075 688.978 220.113C694.64 219.734 700.81 221.431 706.54 224.888C712.884 228.746 717.803 234.014 721.366 241.078C722.775 236.947 722.586 232.255 721.335 227.851L721.343 227.844Z" fill="#FFF3F6"/>
<path d="M294.916 201.362C279.484 188.424 256.7 195.67 251.561 215.142C249.469 222.957 251.015 232.643 257.556 237.661C256.95 226.466 263.923 214.066 274.019 210.753C280.583 208.517 290.004 211.087 296.061 215.801C298.554 217.658 300.843 220.031 302.988 223.245C305.467 215.377 301.139 206.539 294.916 201.37V201.362Z" fill="#FFF3F6"/>
</svg>
