<svg width="899" height="392" viewBox="0 0 899 392" fill="none" xmlns="http://www.w3.org/2000/svg">
<path d="M777.612 312.6C779.791 326.365 770.956 340.448 758.493 346.68C746.03 352.911 730.865 352.112 717.913 346.97C704.962 341.827 694.5 332.971 684.768 322.998C683.982 337.116 672.736 349.403 659.24 353.633C645.744 357.863 630.692 354.885 618.398 347.896C606.098 340.908 596.407 327.589 588.124 316.123C588.216 329.661 578.773 342.726 565.893 346.892C553.012 351.058 537.713 345.993 529.854 334.973C529.161 354.241 505.982 364.865 486.742 363.648C457.388 361.788 429.957 341.757 419.248 314.361C373.307 348.158 303.896 345.23 258.379 310.867C241.424 331.953 215.048 345.166 188.006 346.114C160.965 347.062 136.322 331.245 117.931 311.398C84.5234 325.65 47.5369 331.083 11.3779 327.765C24.0958 334.648 46.2425 339.21 71.4589 339.21C82.1751 339.21 92.3253 338.383 101.45 336.904C125.662 359.426 162.026 373.756 202.684 373.756C232.823 373.756 260.593 365.884 282.818 352.635C301.357 365.926 324.076 373.756 348.628 373.756C373.18 373.756 393.579 366.704 411.574 354.63C434.208 377.3 463.825 391.037 496.242 391.037C523.679 391.037 549.101 381.19 569.995 364.434C586.462 377.64 607.364 385.541 630.119 385.541C657.372 385.541 681.981 374.202 699.487 355.981C711.073 367.044 726.217 373.763 742.797 373.763C766.741 373.763 787.699 359.787 799.257 338.885C803.225 339.104 807.278 339.217 811.395 339.217C845.474 339.217 874.97 331.5 889.194 320.268C851.875 322.687 814.21 320.119 777.626 312.614L777.612 312.6Z" fill="#C38092"/>
<path d="M144.287 223.298C142.66 201.201 163.993 180.356 186.048 182.492C176.562 155.564 185.659 123.14 207.77 105.082C229.881 87.0163 263.466 84.576 287.961 99.2461C307.136 76.4841 347.575 77.1702 365.965 100.576C375.953 83.1684 395.334 75.989 414.977 71.8723C429.173 68.8944 444.388 68.6892 457.77 74.2842C483.807 85.1772 496.9 115.996 495.556 144.183C500.274 138.447 507.298 139.727 514.704 140.279C536.822 141.905 558.12 152.699 572.514 169.569C586.908 186.439 594.215 209.173 592.348 231.27C607.945 223.016 625.232 226.991 641.649 233.463C658.066 239.935 671.385 253.834 677.157 270.513C691.042 253.523 712.312 249.866 733.687 254.782C755.07 259.698 772.959 277.459 778.03 298.799C808.891 286.046 842.574 280.571 875.918 282.198C860.017 275.266 837.001 270.902 811.388 270.902C808.417 270.902 805.489 270.959 802.596 271.072C792.106 246.4 769.273 229.282 742.784 229.282C731.431 229.282 720.75 232.423 711.421 237.954C694.374 211.033 664.326 193.159 630.105 193.159C625.861 193.159 621.688 193.435 617.593 193.965C603.326 147.946 569.713 112.445 527.966 100.314C513.254 42.5462 463.146 0 403.582 0C358.248 0 318.397 24.6436 295.451 61.8777C281.672 55.4268 266.302 51.8193 250.083 51.8193C190.893 51.8193 142.907 99.8049 142.907 158.995C142.907 165.644 143.516 172.151 144.676 178.468C113.921 190.209 89.9069 210.998 78.3066 236.377C98.8123 226.694 121.645 221.94 144.287 223.277V223.298Z" fill="#FFF3F6"/>
<path d="M117.921 311.399C136.311 331.247 160.955 347.07 187.996 346.115C215.038 345.168 241.414 331.955 258.369 310.869C303.893 345.238 373.297 348.167 419.238 314.363C429.947 341.758 457.385 361.79 486.732 363.65C505.972 364.874 529.151 354.243 529.844 334.975C537.696 346.002 553.002 351.06 565.883 346.893C578.763 342.727 588.199 329.663 588.114 316.124C596.39 327.59 606.088 340.917 618.388 347.898C630.689 354.886 645.734 357.857 659.23 353.634C672.726 349.405 683.972 337.125 684.757 323C694.49 332.973 704.952 341.822 717.903 346.971C730.854 352.114 746.02 352.913 758.483 346.681C770.946 340.45 779.781 326.367 777.602 312.602C814.185 320.107 851.851 322.667 889.17 320.255C894.97 315.679 898.238 310.515 898.238 305.055C898.238 296.262 889.785 288.248 875.907 282.194C842.571 280.56 808.881 286.041 778.02 298.795C772.948 277.447 755.059 259.686 733.677 254.777C712.294 249.861 691.024 253.518 677.146 270.508C671.375 253.829 658.056 239.93 641.638 233.458C625.221 226.986 607.934 223.011 592.337 231.265C594.204 209.168 586.898 186.435 572.503 169.565C558.109 152.695 536.811 141.908 514.693 140.274C507.287 139.729 500.263 138.442 495.545 144.178C496.896 115.991 483.797 85.1655 457.76 74.2796C444.377 68.6846 429.169 68.8898 414.966 71.8676C395.323 75.9843 375.942 83.1637 365.955 100.571C347.564 77.1655 307.126 76.4794 287.95 99.2415C263.455 84.5713 229.871 87.0116 207.759 105.077C185.648 123.142 176.552 155.559 186.037 182.488C163.982 180.352 142.649 201.197 144.276 223.294C121.634 221.95 98.8015 226.71 78.2958 236.394C73.3657 247.181 70.6637 258.795 70.6637 270.897C70.6637 277.2 71.3923 283.368 72.7857 289.359C72.3401 289.359 71.8945 289.345 71.4488 289.345C31.9867 289.345 0.000976563 300.506 0.000976563 314.271C0.000976563 319.244 4.1884 323.87 11.3678 327.753C47.5268 331.07 84.5133 325.638 117.921 311.385V311.399Z" fill="#F1D0D9"/>
<path d="M196.168 181.344C178.3 170.939 157.08 177.531 145.395 193.892C130.937 213.556 132.409 243.568 149.689 260.947C144.447 245.06 143.478 229.471 148.762 214.327C155.602 194.974 172.578 181.542 193.657 187.009C198.94 188.403 203.481 191.013 207.57 194.811C205.639 189.188 201.31 184.435 196.161 181.344H196.168Z" fill="#FFF3F6"/>
<path d="M429.074 153.453C425.552 153.871 422.036 154.698 418.641 155.95C412.643 142.822 396.629 135.883 382.567 136.307C368.031 136.513 354.945 146.076 353.149 160.399C341.909 156.431 329.616 155.151 318.044 158.405C303.48 162.5 290.472 174.765 289.361 190.206C294.079 177.071 306.634 168.392 319.791 166.412C332.834 164.544 346.019 168.576 357.308 175.098L370.797 182.907L365.647 167.6C363.674 162.132 366.928 155.427 371.638 152.258C381.902 145.623 398.305 148.778 406.644 157.386C410.139 160.689 411.263 166.702 412.706 171.038L418.188 167.345C421.852 164.877 426.061 163.031 430.538 161.962C444.628 158.539 460.303 162.245 471.344 171.957C462.559 158.242 445.081 151.593 429.067 153.453H429.074Z" fill="#FFF3F6"/>
<path d="M625.145 220.528C606.372 211.035 581.361 217.232 568.643 233.861C563.635 240.263 560.106 248.064 559.929 256.213C573.609 239.414 591.278 228.04 612.887 226.639C619.833 226.088 626.963 226.512 634.857 227.637C632.148 224.666 628.781 222.36 625.145 220.535V220.528Z" fill="#FFF3F6"/>
<path d="M702.46 281.983C696.327 261.095 669.972 253.59 653.682 268.048C647.988 273 643.843 280.427 644.43 287.995C651.73 278.665 663.557 272.208 675.093 273.17C686.623 274.231 697.148 282.605 702.764 293.031C703.719 289.495 703.472 285.647 702.46 281.983Z" fill="#FFF3F6"/>
</svg>
