<svg width="339" height="188" viewBox="0 0 339 188" fill="none" xmlns="http://www.w3.org/2000/svg">
<path d="M283.811 158.497C273.477 157.472 263.001 155.215 252.823 157.281C244.342 158.999 236.773 163.597 228.816 166.985C202.948 177.998 171.804 175.678 147.854 160.945C143.858 158.483 139.918 155.647 135.313 154.727C129.053 153.475 122.73 155.951 116.682 158.009C80.0844 170.479 38.7548 167.905 3.69227 151.742C1.28025 153.702 0 155.739 0 157.825C0 173.931 75.6211 186.996 168.961 187.017C168.975 187.017 168.989 187.017 169.003 187.017C169.01 187.017 169.025 187.017 169.032 187.017C169.095 187.017 169.166 187.017 169.23 187.017C262.697 187.017 338.46 173.945 338.46 157.825C338.46 156.142 337.632 154.501 336.048 152.895C319.241 158.243 301.353 160.23 283.797 158.49L283.811 158.497Z" fill="#C38092"/>
<path d="M96.2896 116.944C93.6937 90.1498 104.509 62.4293 124.717 44.0599C138.602 31.441 157.99 23.0733 176.6 26.7585C196.802 30.762 212.038 48.3534 217.817 67.6071C223.603 86.8607 221.41 107.522 217.265 127.179C228.292 116.201 245.672 111.731 260.837 115.968C275.995 120.204 288.296 132.972 291.655 147.967C300.108 144.89 309.204 143.575 318.216 143.978C310.952 141.658 301.933 139.529 291.443 137.64C293.226 133.58 294.216 129.166 294.216 124.533C294.216 104.919 276.617 89.0181 254.881 88.9544C252.695 39.4268 215.079 0 168.996 0C122.914 0 83.0129 41.8671 83.0129 93.5096C83.0129 94.797 83.0412 96.0773 83.0907 97.3505C67.2818 98.6166 54.0546 106.164 48.0918 116.526C52.0741 114.864 56.3464 113.775 60.6045 113.287C72.5372 111.922 84.5408 114.44 96.2754 116.944H96.2896Z" fill="#FFF3F6"/>
<path d="M116.679 158.027C122.726 155.968 129.043 153.486 135.31 154.745C139.915 155.664 143.854 158.501 147.851 160.962C171.801 175.696 202.945 178.016 228.812 167.003C236.777 163.615 244.338 159.017 252.819 157.298C262.998 155.233 273.473 157.489 283.808 158.515C301.364 160.255 319.252 158.267 336.058 152.92C332.925 149.737 326.799 146.738 318.219 143.993C309.208 143.59 300.112 144.906 291.659 147.983C288.292 132.987 275.999 120.22 260.841 115.983C245.682 111.746 228.296 116.216 217.269 127.194C221.407 107.544 223.599 86.8759 217.82 67.6223C212.034 48.3686 196.798 30.7701 176.604 26.7737C157.987 23.0885 138.606 31.4562 124.721 44.0751C104.512 62.4445 93.6973 90.165 96.2932 116.959C84.5586 114.455 72.5551 111.937 60.6223 113.302C56.3642 113.79 52.0919 114.879 48.1096 116.541C45.931 120.333 44.7144 124.499 44.7144 128.877C44.7144 131.961 45.3226 134.939 46.4402 137.754C25.3758 141.588 10.2813 146.398 3.70313 151.76C38.7657 167.922 80.0953 170.49 116.693 158.027H116.679Z" fill="#F1D0D9"/>
</svg>
