<svg width="972" height="301" viewBox="0 0 972 301" fill="none" xmlns="http://www.w3.org/2000/svg">
<path d="M236.725 222.048C258.376 240.305 288.162 248.524 316.116 243.961C322.256 242.957 328.395 241.366 334.599 241.847C341.099 242.349 347.189 245.093 353.527 246.656C371.175 251.006 390.938 245.383 403.656 232.396C440.204 258.25 495.333 253.093 526.449 220.909C563.612 250.405 617.688 256.792 660.701 236.768C666.827 233.917 673.15 230.487 679.884 231.024C685.33 231.456 690.19 234.434 695.028 236.973C717.953 249.005 744.365 252.294 770.182 254.281C835.773 259.339 901.909 257.266 967.062 248.149C953.82 240.524 913.057 234.228 858.889 231.095C865.022 221.32 868.537 209.974 868.537 197.864C868.537 178.483 859.533 161.048 845.188 148.917C839.692 147.849 834.125 147.092 828.509 146.696C798.568 144.595 766.709 154.109 747.038 176.779C733.436 126.933 692.651 85.4265 643.06 70.9402C627.824 66.4911 607.934 66.187 599.863 79.8527C585.384 62.332 563.322 50.1164 540.631 51.3967C517.94 52.684 495.913 69.5751 492.447 92.0401C487.666 83.7431 476.844 79.4707 467.684 82.2718C458.524 85.0728 451.938 94.6572 452.61 104.213C437.247 93.6882 415.984 92.507 399.546 101.271C383.115 110.035 372.236 128.34 372.413 146.965C353.343 135.329 332.165 126.346 309.898 124.613C287.632 122.88 264.134 129.062 247.908 144.411C242.199 114.533 207.469 99.7571 177.082 98.3919C160.969 97.6705 144.389 99.559 129.012 104.482C116.881 120.439 109.751 139.863 109.751 160.821C109.751 172.344 111.908 183.399 115.862 193.67C48.6302 198.034 0.000976563 210.688 0.000976563 225.627C0.000976563 226.646 0.241464 227.65 0.680012 228.64C78.211 246.522 160.368 244.471 236.732 222.041L236.725 222.048Z" fill="#F1D0D9"/>
<path d="M177.068 98.4045C207.455 99.7626 242.186 114.546 247.894 144.424C264.12 129.075 287.618 122.892 309.884 124.625C332.158 126.358 353.336 135.341 372.399 146.977C372.222 128.353 383.101 110.04 399.532 101.283C415.963 92.5195 437.233 93.7007 452.596 104.226C451.924 94.6697 458.51 85.0853 467.67 82.2843C476.83 79.4832 487.652 83.7556 492.433 92.0526C495.892 69.5877 517.919 52.6966 540.617 51.4092C563.308 50.1219 585.377 62.3375 599.849 79.8653C607.92 66.1996 627.81 66.5036 643.046 70.9528C692.644 85.439 733.422 126.945 747.024 176.791C766.695 154.121 798.554 144.608 828.495 146.708C834.111 147.104 839.671 147.861 845.174 148.929C832.378 138.114 815.339 131.508 796.623 131.508C783.021 131.508 770.303 134.995 759.459 141.05C748.559 78.5284 697.553 31.2218 636.256 31.2218C622.951 31.2218 610.127 33.457 598.095 37.5949C582.958 14.8117 558.442 0 530.764 0C495.227 0 464.89 24.4243 452.943 58.7937C445.7 55.6532 437.799 53.9272 429.53 53.9272C399.893 53.9272 375.002 76.0952 368.07 106.044C358.691 101.234 347.26 98.3974 334.924 98.3974C323.748 98.3974 313.322 100.717 304.488 104.735C285.177 79.1791 253.043 62.4506 216.658 62.4506C180.272 62.4506 148.336 79.08 129.005 104.509C144.375 99.5856 160.962 97.6972 177.075 98.4186L177.068 98.4045Z" fill="#FFF3F6"/>
<path d="M967.048 248.169C901.895 257.287 835.76 259.359 770.168 254.302C744.351 252.314 717.946 249.018 695.014 236.993C690.176 234.454 685.317 231.476 679.87 231.045C673.136 230.507 666.813 233.93 660.687 236.788C617.674 256.813 563.599 250.426 526.435 220.93C495.32 253.113 440.19 258.27 403.642 232.417C390.924 245.403 371.161 251.02 353.513 246.677C347.182 245.113 341.092 242.369 334.585 241.867C328.389 241.386 322.242 242.977 316.102 243.982C288.148 248.551 258.37 240.325 236.711 222.069C160.34 244.505 78.1901 246.549 0.65918 228.668C8.25595 245.807 80.0221 259.239 167.442 259.239C179.721 259.239 191.682 258.97 203.212 258.468C207.611 258.977 212.089 259.239 216.637 259.239C227.169 259.239 237.348 257.831 246.96 255.214C255.363 254.302 263.328 253.255 270.79 252.081C288.665 268.024 315.416 278.16 345.308 278.16C371.635 278.16 395.522 270.302 413.057 257.534C429.346 269.792 450.658 277.212 473.979 277.212C500.044 277.212 523.599 267.932 540.447 253C563.443 282.27 597.819 300.866 636.242 300.866C663.078 300.866 687.948 291.791 708.34 276.342C730.614 277.509 754.982 278.16 780.524 278.16C886.072 278.16 971.639 267.147 971.639 253.559C971.639 251.706 970.047 249.909 967.041 248.169H967.048Z" fill="#C38092"/>
<path d="M590.55 156.236C584.05 155.097 577.196 155.72 571.006 158.16C571.53 142.033 564.159 124.25 548.138 118.86C531.403 113.902 519.215 129.152 517.907 144.268C517.794 145.166 517.709 146.05 517.638 146.934C504.892 138.114 487.032 140.802 479.025 154.581C476.132 159.475 474.724 165.361 475.693 170.927C476.867 154.956 493.15 143.185 508.047 150.301C512.22 152.211 515.877 155.394 518.013 159.398L525.235 172.858L526.034 157.304C526.487 147.041 527.286 134.316 537.012 128.989C545.514 124.703 554.243 132.667 558.105 139.875C561.995 147.246 563.608 155.783 562.815 164.2L561.903 173.573L568.792 167.73C574.578 162.842 582.437 160.607 590.069 160.826C598.147 161.06 606.175 163.974 612.293 169.534C607.434 162.326 599.144 157.7 590.55 156.229V156.236Z" fill="#FFF3F6"/>
<path d="M770.34 182.35C763.252 163.542 740.384 160.875 726.796 174.753C723.875 177.632 721.499 180.921 719.716 184.45C718.521 187.202 716.858 190.095 717.269 193.207C717.41 194.226 718.139 195.478 719.242 195.506C717.764 194.219 719.079 192.337 719.964 191.177C721.025 189.996 722.51 188.348 723.642 187.266C730.043 181.133 737.937 175.63 746.941 175.779C761.739 176.458 769.555 191.397 764.773 205.147C771.111 199.856 773.091 190.272 770.333 182.35H770.34Z" fill="#FFF3F6"/>
<path d="M266.111 123.539C241.234 131.008 222.546 158.325 227.717 184.235C232.23 168.794 239.367 155.029 250.663 144.037C261.966 133.059 275.908 126.297 291.462 122.18C283.236 120.2 274.373 120.943 266.111 123.546V123.539Z" fill="#FFF3F6"/>
<path d="M375.519 136.935C364.435 136.03 352.99 143.28 350.755 154.477C349.086 162.286 351.731 171.46 358.67 175.782C351.462 160.575 361.429 143.429 379.02 147.262C386.44 149.264 391.342 156.451 392.566 163.85C392.799 165.54 392.898 167.315 392.799 169.19C393.91 167.69 394.765 165.936 395.317 164.055C398.833 151.018 388.972 137.721 375.512 136.935H375.519Z" fill="#FFF3F6"/>
<path d="M477.852 101.182C487.422 92.7863 501.102 92.5034 508.833 103.446C512.886 109.076 514.569 115.612 513.565 122.749C516.409 119.509 517.894 114.792 517.908 110.279C518.106 97.476 507.857 85.5856 494.715 85.1824C485.965 84.7792 477.137 89.0658 471.988 96.1109C467.369 102.385 465.049 113.943 472.632 118.731C469.406 112.309 473.381 105.462 477.852 101.182Z" fill="#FFF3F6"/>
</svg>
