<svg width="657" height="196" viewBox="0 0 657 196" fill="none" xmlns="http://www.w3.org/2000/svg">
<path d="M123.727 133.071C128.799 119.837 147.02 113.768 159.016 121.315C149.538 106.143 153.718 84.9863 165.849 71.8298C177.972 58.6734 196.37 52.6964 214.252 52.0527C241.109 51.0766 271.517 65.1526 277.063 91.4513C284.532 75.9253 300.695 64.9545 317.876 63.745C335.057 62.5354 352.599 71.1296 362.177 85.446C380.709 50.8361 420.829 29.0573 459.951 32.3747C480.782 34.1431 501.345 42.8079 515.626 58.0793C529.9 73.3506 537.228 95.4548 532.828 115.897C542.42 114.383 551.969 124.158 550.236 133.707C580.453 117.962 614.603 112.721 647.317 118.613C631.89 106.899 597.556 98.5529 557.09 97.8102C557.09 97.789 557.09 97.7749 557.09 97.7536C557.09 43.7628 503.24 0 436.807 0C393.165 0 354.955 18.8929 333.869 47.158C328.246 46.3516 322.446 45.9272 316.525 45.9272C306.927 45.9272 297.653 47.0378 288.911 49.0961C272.6 30.5993 248.154 18.8434 220.83 18.8434C171.72 18.8434 131.911 56.806 131.911 103.646C131.911 104.445 131.925 105.244 131.946 106.037C129.789 106.015 127.617 106.001 125.432 106.001C56.1554 106.001 0 118.394 0 133.679C0 134.04 0.0424573 134.401 0.106117 134.754C38.8468 117.778 84.6042 116.788 123.727 133.071Z" fill="#FFF3F6"/>
<path d="M168.369 150.354C181.419 158.022 194.745 165.802 209.514 169.113C224.29 172.416 241.019 170.584 252.471 160.681C267.926 171.85 285.213 181.357 304.113 183.91C323.013 186.471 343.773 181.053 356.131 166.531C361.139 174.771 375.809 173.604 379.458 164.678C415.936 183.755 461.962 183.252 498.008 163.376C501.806 161.283 505.541 158.97 509.7 157.739C515.005 156.169 520.664 156.459 526.195 156.65C568.925 158.114 611.867 152.731 652.935 140.869C654.937 138.188 656.012 135.38 656.012 132.487C656.012 127.55 652.907 122.853 647.305 118.602C614.591 112.71 580.44 117.951 550.223 133.697C551.956 124.148 542.4 114.372 532.816 115.886C537.215 95.4439 529.887 73.3467 515.613 58.0683C501.332 42.797 480.777 34.1321 459.939 32.3638C420.816 29.0464 380.696 50.8252 362.164 85.4351C352.594 71.1116 335.052 62.5174 317.864 63.7341C300.683 64.9436 284.52 75.9143 277.051 91.4403C271.505 65.1416 241.097 51.0728 214.239 52.0418C196.358 52.6926 177.967 58.6625 165.836 71.8189C153.706 84.9753 149.525 106.125 159.004 121.304C147.014 113.757 128.786 119.826 123.715 133.06C84.5919 116.777 38.8345 117.76 0.09375 134.743C1.96819 145.537 31.846 154.747 74.1587 158.934C99.354 154.301 124.443 146.549 148.733 138.818C155.276 142.666 161.819 146.506 168.362 150.354H168.369Z" fill="#F1D0D9"/>
<path d="M526.192 156.66C520.661 156.469 515.009 156.179 509.697 157.749C505.538 158.98 501.804 161.293 498.005 163.387C461.952 183.263 415.933 183.772 379.456 164.688C375.806 173.615 361.136 174.782 356.128 166.541C343.764 181.063 323.003 186.474 304.11 183.921C285.21 181.36 267.923 171.861 252.468 160.692C241.016 170.595 224.288 172.426 209.512 169.123C194.735 165.813 181.416 158.039 168.366 150.365C161.823 146.517 155.28 142.676 148.737 138.828C124.448 146.559 99.3583 154.312 74.1631 158.945C89.8164 160.494 107.167 161.357 125.431 161.357C135.595 161.357 145.47 161.088 154.934 160.586C171.202 177.696 194.7 188.448 220.829 188.448C234.403 188.448 247.262 185.54 258.77 180.356C274.82 189.869 294.83 195.514 316.524 195.514C338.218 195.514 357.528 190.067 373.429 180.851C391.834 190.138 413.542 195.514 436.799 195.514C470.575 195.514 501.096 184.189 522.946 165.969C531.929 166.803 541.4 167.249 551.19 167.249C600.363 167.249 641.622 156.023 652.933 140.886C611.865 152.756 568.915 158.138 526.192 156.667V156.66Z" fill="#C38092"/>
<path d="M286.421 90.3639C280.005 85.2852 270.52 84.9104 264.012 90.0244C257.993 94.5443 254.506 103.287 257.745 110.332C259.372 97.5009 271.68 88.3551 283.761 94.5372C287.383 96.3197 290.686 99.1066 293.048 103.223C293.289 98.2365 290.361 93.3984 286.428 90.3639H286.421Z" fill="#FFF3F6"/>
<path d="M396.164 93.7912C392.337 93.2324 388.206 93.3031 384.691 95.1068C382.682 86.6047 374.597 79.503 365.6 79.984C354.933 80.4155 346.063 92.4473 350.046 102.534C349.6 93.7205 357.267 85.2678 365.692 85.4942C373.267 85.7347 380.157 94.0246 378.905 101.473L375.014 124.751C375.014 124.751 384.549 103.376 384.549 103.383C386.325 98.9689 391.538 98.113 395.86 98.1413C401.61 98.0564 407.142 101.586 409.922 106.806C408.974 100.143 402.933 94.6683 396.171 93.7841L396.164 93.7912Z" fill="#FFF3F6"/>
<path d="M553.131 122.351C547.02 109.194 529.782 105.29 518.655 114.697C514.659 118.008 511.646 122.846 511.349 128.023C518.945 116.557 533.771 111.79 545.421 119.748C549.085 122.145 552.289 125.442 554.737 129.799C554.821 127.281 554.199 124.72 553.124 122.343L553.131 122.351Z" fill="#FFF3F6"/>
</svg>
