<svg width="872" height="350" viewBox="0 0 872 350" fill="none" xmlns="http://www.w3.org/2000/svg">
<path d="M271.668 164.986C285.927 140.632 321.167 131.557 345.414 146.008C353.301 118.684 377.598 96.8058 405.601 91.8403C433.605 86.8677 463.949 99.034 480.763 121.98C483.337 99.9889 502.577 83.5857 522.566 74.065C553.293 59.4302 592.027 56.4453 619.973 75.8687C653.303 99.0339 660.907 144.869 660.567 185.456C672.542 166.627 702.265 165.884 719.545 179.995C736.825 194.114 743.092 218.114 742.321 240.416C757.09 228.717 774.498 220.512 792.825 216.169C784.619 172.646 748.708 137.428 701.678 125.184C701.847 122.673 701.939 120.134 701.939 117.58C701.939 52.6398 646.399 0 577.88 0C530.453 0 489.244 25.2307 468.37 62.295C450.51 50.6381 427.161 43.5789 401.605 43.5789C345.45 43.5789 299.926 77.6795 299.926 119.738C299.926 120.105 299.94 120.473 299.947 120.834C296.049 120.629 292.117 120.523 288.149 120.523C233.047 120.523 184.482 140.632 155.849 171.203C192.375 156.349 233.889 153.477 271.653 164.993L271.668 164.986Z" fill="#FFF3F6"/>
<path d="M156.222 253.602C180.844 289.683 223.588 312.686 267.259 313.365C310.93 314.044 354.375 292.378 380.1 257.075C401.172 283.939 429.472 306.73 462.88 313.775C496.28 320.827 534.865 309.099 553.001 280.176C566.667 300.491 600.145 302.981 616.669 284.916C622.95 311.561 655.883 324.852 682.486 318.38C709.089 311.907 729.828 291.317 746.91 269.92C786.726 278.521 829.258 272.601 865.756 254.627C854.333 244.06 827.129 236.35 794.598 235.268C794.598 235.225 794.598 235.183 794.598 235.133C794.598 228.661 793.99 222.316 792.83 216.141C774.503 220.484 757.096 228.689 742.327 240.389C743.105 218.094 736.831 194.087 719.55 179.968C702.27 165.85 672.548 166.6 660.573 185.429C660.912 144.842 653.308 99.0067 619.979 75.8415C592.032 56.4181 553.298 59.4031 522.572 74.0379C502.583 83.5586 483.343 99.9617 480.768 121.953C463.962 99.0139 433.61 86.8406 405.607 91.8132C377.604 96.7858 353.3 118.657 345.42 145.981C321.172 131.537 285.933 140.605 271.673 164.959C233.908 153.443 192.395 156.308 155.868 171.169C140.901 187.155 131.38 205.998 129.237 226.327C122.242 225.917 114.991 225.705 107.571 225.705C48.1624 225.705 0 239.413 0 256.325C0 256.431 0.00708716 256.544 0.0141605 256.65C50.9069 270.741 105.959 269.871 156.222 253.574V253.602Z" fill="#F1D0D9"/>
<path d="M865.756 254.635C829.257 272.608 786.725 278.529 746.91 269.928C729.827 291.324 709.088 311.915 682.485 318.387C655.883 324.859 622.949 311.568 616.668 284.923C600.145 302.988 566.667 300.499 553.001 280.184C534.865 309.107 496.287 320.827 462.879 313.782C429.479 306.73 401.171 283.94 380.1 257.082C354.374 292.378 310.937 314.051 267.259 313.372C223.588 312.693 180.844 289.691 156.221 253.609C105.958 269.906 50.9064 270.776 0.0136719 256.686C0.629053 273.45 48.5439 286.981 107.571 286.981C120.607 286.981 133.099 286.324 144.664 285.114C170.474 323.402 225.031 349.8 288.161 349.8C334.01 349.8 375.333 335.872 404.411 313.584C430.172 336.028 464.987 349.8 503.304 349.8C534.023 349.8 562.479 340.944 585.835 325.871C607.734 340.866 635.214 349.8 665.05 349.8C711.288 349.8 751.868 328.36 774.793 296.106C778.697 296.304 782.694 296.41 786.754 296.41C833.586 296.41 871.549 282.702 871.549 265.79C871.549 261.864 869.491 258.108 865.763 254.656L865.756 254.635Z" fill="#C38092"/>
<path d="M246.39 179.241C244.198 189.787 244.7 201.168 249.347 210.887C253.775 176.1 273.538 149.434 307.61 139.213C311.083 138.159 314.931 137.239 318.489 136.518C319.748 136.298 321.021 136.079 322.33 135.789C317.513 133.589 312.201 132.507 306.825 132.182C278.701 130.406 251.816 151.683 246.39 179.234V179.241Z" fill="#FFF3F6"/>
<path d="M522.942 130.258C526.288 131.998 529.74 134.183 532.796 136.397C533.835 137.218 534.889 138.06 536.028 138.88C534.309 133.617 531.155 128.801 527.25 124.648C505.634 101.985 467.721 104.369 449.054 129.557C442.214 138.625 438.041 150.275 439.59 161.536C454.847 127.789 489.231 112.928 522.942 130.258Z" fill="#FFF3F6"/>
<path d="M644.621 216.576C642.541 216.944 640.469 217.446 638.424 218.083C637.392 204.735 629.363 192.18 617.954 185.064C598.205 172.431 571.942 180.898 560.179 200.35C559.054 202.168 558.085 204.085 557.272 206.079C538.86 195.78 514.209 198.744 500.494 215.671C495.55 221.556 492.268 228.693 491.334 235.964C503.125 209.8 535.748 201.248 556.607 221.697L565.307 230.716L567.698 217.92C570.386 203.519 585.827 191.812 600.561 193.475C615.705 195.179 628.21 210.21 627.807 225.375L627.531 235.858C633.176 232.053 640.023 226.84 646.672 224.93C659.199 220.848 672.758 221.733 685.031 227.667C674.428 217.807 658.859 214.129 644.635 216.576H644.621Z" fill="#FFF3F6"/>
</svg>
