<svg width="778" height="315" viewBox="0 0 778 315" fill="none" xmlns="http://www.w3.org/2000/svg">
<path d="M773.089 239.046C741.341 253.951 704.916 259.036 670.488 252.151C651.451 276.995 618.041 288.202 586.871 285.325C555.701 282.448 526.758 267.076 502.617 247.152C458.184 277.219 398.767 283.788 348.836 264.16C339.384 273.021 321.766 270.216 315.538 258.845C307.833 271.655 289.433 274.584 275.638 268.823C261.843 263.062 251.891 250.824 243.673 238.337C224.459 254.378 192.567 251.935 176.026 233.141C120.544 239.427 64.6747 242.265 8.84473 241.654C27.4153 249.432 73.6348 255.456 131.304 257.479C145.664 273.402 166.455 283.42 189.584 283.42C207.13 283.42 223.336 277.659 236.402 267.924C251.55 287.046 275.29 299.369 301.986 299.369C319.506 299.369 335.751 294.062 349.132 285.01C367.821 297.182 391.929 304.513 418.245 304.513C453.198 304.513 484.256 291.579 503.891 271.55C519.046 297.143 551.182 314.8 588.375 314.8C625.569 314.8 656.226 297.937 671.795 273.29C676.669 273.52 681.668 273.645 686.772 273.645C737.058 273.645 777.825 261.9 777.825 247.409C777.825 244.485 776.163 241.674 773.095 239.046H773.089Z" fill="#C38092"/>
<path d="M193.416 166.15C185.566 147.914 192.825 124.489 209.615 113.893C226.399 103.298 250.671 106.812 263.763 121.737C260.124 96.3279 269.794 69.3818 288.752 52.0856C308.019 34.507 339.274 28.0103 360.538 43.119C376.448 54.4243 383.313 74.4202 388.213 93.3193C393.403 70.2227 420.421 55.5935 443.34 61.4991C466.259 67.4046 482.491 90.8625 482.682 114.531C489.553 97.484 514.758 93.2667 529.217 104.624C543.156 115.575 546.736 136.215 541.001 153.038C547.446 137.2 570.398 131.952 585.336 140.918C600.838 150.226 607.644 169.868 606.619 187.919C605.594 205.971 598.132 222.952 590.781 239.473C602.139 231.15 616.079 225.757 630.13 226.637C644.181 227.524 658.12 235.4 664.229 248.085C691.839 236.635 721.498 230.184 751.36 228.943C734.866 224.161 712.025 221.198 686.768 221.198C684.416 221.198 682.09 221.224 679.785 221.277C673.551 199.008 655.394 180.444 631.082 170.288C634.827 162.195 636.876 153.439 636.876 144.295C636.876 103.239 595.649 69.9599 544.798 69.9599C540.338 69.9599 535.95 70.2227 531.66 70.7154C520.506 40.36 489.376 18.518 452.721 18.518C436.095 18.518 420.605 23.0113 407.605 30.7561C391.117 12.0213 365.609 0 336.975 0C287.254 0 246.953 36.2477 246.953 80.9564C246.953 82.349 246.993 83.7351 247.072 85.108C241.862 82.6578 236.049 81.2782 229.913 81.2782C207.644 81.2782 189.593 99.3299 189.593 121.599C189.593 123.281 189.704 124.929 189.908 126.552C189.803 126.552 189.698 126.552 189.593 126.552C166.358 126.552 145.488 136.655 131.122 152.71C152.583 149.235 175.345 154.076 193.436 166.163L193.416 166.15Z" fill="#FFF3F6"/>
<path d="M540.999 153.008C540.756 153.612 540.526 154.223 540.329 154.854C540.566 154.243 540.789 153.625 540.999 153.008Z" fill="#020202"/>
<path d="M176.016 233.157C192.557 251.944 224.45 254.394 243.664 238.353C251.882 250.841 261.834 263.079 275.629 268.84C289.424 274.601 307.823 271.664 315.529 258.861C321.756 270.226 339.374 273.037 348.827 264.176C398.758 283.804 458.175 277.235 502.607 247.168C526.748 267.092 555.692 282.47 586.861 285.341C618.031 288.212 651.441 277.011 670.478 252.167C704.9 259.058 741.331 253.967 773.079 239.062C768.586 235.213 761.065 231.758 751.349 228.939C721.486 230.181 691.834 236.632 664.218 248.082C658.109 235.397 644.169 227.521 630.118 226.634C616.067 225.747 602.128 231.147 590.77 239.47C598.121 222.949 605.59 205.968 606.608 187.916C607.626 169.864 600.827 150.217 585.324 140.915C570.386 131.948 547.441 137.19 540.99 153.035C540.78 153.652 540.556 154.27 540.32 154.881C540.517 154.25 540.747 153.639 540.99 153.035C546.725 136.211 543.151 115.572 529.205 104.621C514.747 93.2633 489.542 97.4807 482.67 114.527C482.486 90.8591 466.248 67.4012 443.329 61.4957C420.41 55.5902 393.385 70.2193 388.202 93.3159C383.301 74.4234 376.437 54.4275 360.526 43.1156C339.269 28.0069 308.007 34.5036 288.74 52.0823C269.776 69.385 260.113 96.3245 263.752 121.733C250.666 106.809 226.387 103.294 209.604 113.89C192.82 124.486 185.561 147.917 193.405 166.146C175.314 154.059 152.552 149.218 131.091 152.693C118.669 166.573 111.115 184.894 111.115 204.989C111.115 207.176 111.207 209.344 111.384 211.486C46.2327 214.974 0 223.763 0 234.05C0 236.711 3.1006 239.279 8.8222 241.67C64.6521 242.281 120.528 239.443 176.003 233.157H176.016Z" fill="#F1D0D9"/>
<path d="M190.753 156.69C185.59 158.595 181.563 163.351 180.164 168.54C178.548 173.973 179.743 181.034 184.657 184.2C181.136 176.199 186.477 165.072 194.609 163.37C203.122 161.918 211.702 169.079 213.817 177.96C215.906 172.632 213.817 166.267 210.033 162.056C205.487 156.742 197.473 154.147 190.76 156.683L190.753 156.69Z" fill="#FFF3F6"/>
<path d="M305.343 121.437C299.109 119.854 292.408 121.286 287.173 124.912C286.332 122.448 284.926 120.162 283.139 118.316C271.013 105.894 253.789 116.254 255.917 132.229C253.296 131.402 250.538 131.139 247.785 131.921C242.353 133.221 238.313 141.906 243.666 145.453C240.237 141.846 244.336 135.54 248.481 135.297C253.053 134.923 262.368 138.043 262.368 138.043C258.079 133.241 263.038 121.726 269.213 120.451C273.936 119.381 278.876 123.302 280.361 127.684C280.88 129.201 280.952 130.738 280.604 132.183L280.531 141.203L287.035 134.975C288.605 132.124 291.187 129.7 294.267 128.13C304.732 122.514 317.331 129.208 320.681 140.349C320.609 131.691 313.902 123.618 305.336 121.437H305.343Z" fill="#FFF3F6"/>
<path d="M391.102 87.2098C384.776 85.0092 377.044 86.5596 372.748 91.887C368.866 96.5313 367.539 103.948 371.355 108.947C370.817 102.956 374.18 96.8465 379.645 94.4291C384.487 92.465 390.34 94.0284 394.117 97.5231C398.42 101.57 399.595 107.968 398.676 113.676C398.439 114.964 398.124 116.278 397.684 117.631C398.787 116.751 399.779 115.686 400.614 114.484C407.275 104.526 402.538 90.9147 391.102 87.2098Z" fill="#FFF3F6"/>
<path d="M486.597 119.725C491.255 124.757 490.479 132.902 486.518 138.21C489.192 137.303 491.412 135.261 492.923 132.843C497.239 125.939 495.307 116.46 488.601 111.783C482.084 106.948 472.027 107.198 466.529 113.471C462.627 117.774 460.985 124.586 463.921 129.769C464.873 117.826 477.328 110.784 486.591 119.725H486.597Z" fill="#FFF3F6"/>
<path d="M558.51 175.266C540.688 167.698 520.574 175.936 511.042 191.681C510.53 190.519 509.939 189.389 509.236 188.298C502.115 176.947 484.957 176.106 480.122 189.816C479.406 191.872 478.992 193.889 478.775 195.872C473.415 190.565 466.517 186.834 458.851 186.65C448.525 186.347 437.233 195.124 438.435 206.035C439.059 196.391 449.622 189.652 458.569 190.827C467.674 191.997 475.011 198.993 479.274 206.823L485.85 218.976L485.292 204.99C485.226 199.275 484.957 192.122 489.706 188.305C494.153 185.25 500.328 188.141 502.936 192.404C505.051 195.597 506.01 199.82 506.312 204.136L508.178 230.879L513.558 204.721C514.8 198.671 517.874 192.943 522.177 188.298C533.515 175.712 552.19 173.695 566.773 182.077C569.71 183.759 572.469 185.829 574.926 188.285C571.004 182.413 565.085 177.913 558.49 175.279L558.51 175.266Z" fill="#FFF3F6"/>
</svg>
