<svg width="1131" height="319" viewBox="0 0 1131 319" fill="none" xmlns="http://www.w3.org/2000/svg">
<path d="M291.191 108.696C303.371 89.5486 335.116 87.6671 349.468 105.244C353.712 81.2515 378.773 65.2092 403.105 63.9501C427.437 62.6911 450.843 72.9616 472.162 84.7599C476.335 66.7299 499.72 62.5284 518.224 62.0545C537.279 61.5664 556.674 61.1278 575.03 66.2772C593.385 71.4266 610.877 83.1118 618.304 100.668C625.371 87.8368 641.682 83.416 656.324 82.8006C700.497 80.9403 744.889 103.985 768.79 141.177C834.169 125.849 903.184 126.662 968.315 142.91C942.992 114.857 893.33 95.7943 836.206 95.7943C816.401 95.7943 797.501 98.0932 780.192 102.252C761.285 59.4303 703.524 28.2651 635.203 28.2651C616.869 28.2651 599.291 30.5073 583.023 34.624C576.183 14.4933 557.141 0 534.698 0C508.936 0 487.646 19.091 484.173 43.8901C464.07 33.9874 440.36 28.2651 414.96 28.2651C371.805 28.2651 333.503 44.7672 309.525 70.2595C301.122 68.47 292.4 67.5222 283.445 67.5222C243.375 67.5222 207.831 86.3938 185.656 115.508C190.99 111.801 196.662 108.604 202.611 105.994C230.579 93.736 264.029 94.7546 291.198 108.689L291.191 108.696Z" fill="#FFF3F6"/>
<path d="M227.401 219.494C240.6 250.786 285.254 263.341 312.833 243.522C312.564 261.686 341.628 270.719 351.701 255.596C394.113 272.572 444.008 269.679 484.171 247.922C491.421 243.996 498.6 239.405 506.756 238.224C513.44 237.255 520.202 238.67 526.851 239.872C560.259 245.934 594.593 246.853 628.276 242.595C659.604 277.043 705.545 297.739 752.102 298.39C798.659 299.034 845.152 279.617 877.427 246.054C926.87 253.396 976.843 260.76 1026.65 256.558C1062.26 253.559 1098.15 244.067 1128.73 226.079C1117.65 207.865 1059.58 193.443 985.918 190.55C986.088 188.817 986.18 187.07 986.18 185.308C986.18 169.966 979.708 155.529 968.32 142.911C903.189 126.663 834.167 125.857 768.795 141.178C744.894 103.986 700.502 80.941 656.329 82.8013C641.687 83.4167 625.383 87.8305 618.31 100.669C610.882 83.1126 593.39 71.4274 575.035 66.278C556.679 61.1286 537.284 61.5742 518.229 62.0552C499.725 62.5291 476.34 66.7307 472.167 84.7607C450.848 72.9623 427.442 62.6847 403.11 63.9509C378.778 65.2099 353.717 81.2523 349.473 105.245C335.121 87.6678 303.369 89.5564 291.196 108.697C264.027 94.7624 230.577 93.7438 202.609 106.002C196.653 108.612 190.98 111.816 185.654 115.516C170.63 135.236 161.746 159.653 161.746 186.093C161.746 187.671 161.789 189.241 161.852 190.804C151.999 190.295 141.707 190.019 131.126 190.019C58.7088 190.019 0 202.673 0 218.284C0 219.692 0.48099 221.071 1.40052 222.422C76.7104 225.782 152.218 224.806 227.415 219.487L227.401 219.494Z" fill="#F1D0D9"/>
<path d="M1128.71 226.085C1098.14 244.073 1062.25 253.565 1026.64 256.564C976.835 260.759 926.855 253.403 877.412 246.06C845.144 279.623 798.643 299.04 752.087 298.396C705.53 297.752 659.588 277.049 628.261 242.602C594.577 246.86 560.243 245.94 526.836 239.878C520.194 238.676 513.425 237.261 506.74 238.23C498.585 239.411 491.398 244.002 484.155 247.928C443.986 269.685 394.097 272.578 351.686 255.602C341.613 270.718 312.549 261.685 312.818 243.528C285.239 263.348 240.585 250.785 227.386 219.5C152.189 224.826 76.681 225.802 1.37109 222.435C10.6655 236.087 65.201 246.563 131.089 246.563C147.471 246.563 163.153 245.912 177.611 244.731C198.555 280.529 238.088 304.67 283.414 304.67C309.168 304.67 333.047 296.868 352.718 283.57C372.884 291.896 397.79 296.819 424.746 296.819C469.789 296.819 509.11 283.082 530.16 262.669C542.857 276.95 560.583 285.827 580.211 285.827C594.613 285.827 607.988 281.052 619.108 272.875C645.258 300.341 695.394 318.923 752.949 318.923C810.505 318.923 862.728 299.556 888.397 271.143C909.85 273.512 933.631 274.835 958.664 274.835C1053.63 274.835 1130.62 255.85 1130.62 232.437C1130.62 230.28 1129.95 228.165 1128.69 226.099L1128.71 226.085Z" fill="#C38092"/>
</svg>
