<svg width="117" height="124" viewBox="0 0 117 124" fill="none" xmlns="http://www.w3.org/2000/svg">
<path d="M96.0221 44.0797C107.533 68.4269 100.276 96.0166 79.8089 105.692L66.4979 111.985C60.8283 114.666 54.7445 115.685 48.6623 115.251C40.4126 114.666 32.1659 111.389 24.9813 105.907C21.3246 103.112 17.9329 99.7501 14.966 95.8788C14.7986 95.6565 14.6349 95.4403 14.4704 95.2233C14.3372 95.039 14.2062 94.8609 14.0761 94.6828C12.0091 91.8476 10.1628 88.7452 8.58842 85.4144C-2.92205 61.0672 4.34175 33.4745 24.8077 23.7988L38.1187 17.5057C58.5847 7.83002 84.5116 19.7318 96.0221 44.079V44.0797Z" fill="#3578FF"/>
<path d="M62.1333 108.961C61.2425 109.204 54.0838 112.627 48.6624 115.244C40.4127 114.658 32.166 111.381 24.9814 105.899C21.2996 102.822 17.71 99.384 14.9662 95.8713C14.7987 95.649 14.635 95.4327 14.4705 95.2158C14.3373 95.0315 14.2064 94.8534 14.0762 94.6752L27.2547 88.4453C27.2547 88.4453 37.5501 100.506 46.3487 103.709C55.1474 106.911 63.5859 108.567 62.1325 108.961H62.1333Z" fill="#3258A5"/>
<path d="M6.6744 40.5623L22.2252 33.2109C22.2252 33.2109 17.3672 39.4957 16.6295 47.6677C15.891 55.8398 19.5751 73.4569 19.5751 73.4569L6.37368 79.6982C6.37368 79.6982 3.29107 62.0065 3.20656 58.7207C3.12205 55.4348 6.67516 40.563 6.67516 40.563L6.6744 40.5623Z" fill="#A5D5FF"/>
<path d="M79.8032 105.702C100.272 96.026 107.535 68.442 96.0243 44.0911C84.5137 19.7402 58.5889 7.84371 38.1196 17.5195C17.6503 27.1953 10.3878 54.7794 21.8984 79.1302C33.4091 103.481 59.3339 115.378 79.8032 105.702Z" fill="#A5D5FF"/>
<path d="M76.2171 98.1171C92.4973 90.4215 97.9691 67.8387 88.4386 47.6769C78.9082 27.5152 57.9846 17.4093 41.7044 25.1049C25.4242 32.8005 19.9525 55.3834 29.4829 75.5452C39.0133 95.7069 59.937 105.813 76.2171 98.1171Z" fill="#3578FF"/>
<path d="M78.1454 73.0381L78.324 73.3756L78.4114 73.538C78.5567 73.8017 78.829 73.9562 79.0539 73.8871C79.0685 73.8826 79.0978 73.8735 79.1174 73.8675L79.2592 73.8239C80.0678 73.5823 81.2488 73.2121 82.0603 72.9626L83.0185 72.668C83.5874 72.43 83.9597 71.7268 83.9357 70.9352C83.9333 70.7187 83.9135 70.045 83.9052 69.8093C83.8853 68.631 83.6071 67.413 83.0973 66.3293C82.7093 65.5024 81.3003 63.3216 80.8115 62.4977C80.5731 62.1225 80.2913 61.6064 80.0305 61.2802C79.7461 60.9121 79.4412 60.5993 79.1032 60.3178C78.6652 59.9549 76.8181 58.3853 76.435 58.0616L76.1675 57.8355C75.6217 57.4006 75.5468 56.5826 75.2511 55.9517C73.7747 52.2638 70.2836 49.9242 67.3384 50.6476C66.7175 50.8035 65.7476 51.1297 65.115 51.3172C64.7005 51.4657 64.2398 51.4813 63.7826 51.3345C63.3872 51.2318 62.9111 50.8666 62.5496 50.6133L60.319 49.0495C60.0056 48.8305 59.5187 48.4827 59.2092 48.2765C58.306 47.6711 57.3406 47.2461 56.3707 47.0328C55.9391 46.9342 53.8263 46.5537 53.3585 46.4592C52.9191 46.3701 52.4765 46.1838 52.0661 45.9105C51.69 45.6617 51.3018 45.2695 50.9588 44.9544C50.7108 44.7223 50.1953 44.2291 49.9307 43.995C48.937 43.0952 47.7524 42.6184 46.6175 42.5819C46.1831 42.5613 43.9229 42.3453 43.4974 42.371C42.2697 42.4331 41.2297 43.4187 40.8813 44.8434C40.7443 45.355 40.722 45.9436 40.768 46.5111C40.8078 46.8493 40.8771 47.2485 40.9452 47.592C41.1715 48.7629 41.0271 49.9637 40.5504 50.8671L40.4636 51.02C40.4578 51.0358 40.45 51.0452 40.4471 51.0531L40.4334 51.0783C40.2833 51.3558 40.382 51.816 40.6427 52.0372C40.6515 52.0485 40.6858 52.073 40.7015 52.0892L41.2316 52.5429L41.2041 52.5233C41.3619 52.636 41.4689 52.8624 41.4644 53.074C41.4501 53.2537 41.4293 53.6035 41.4169 53.7895C41.3864 54.2124 41.3342 55.0694 41.3057 55.4987C41.2312 56.4397 41.9268 57.4663 42.7027 57.536L43.4014 57.6156C43.599 57.6319 43.8017 57.7518 43.9547 57.936L44.2263 58.28L44.3587 58.4495C44.6618 58.8609 45.1278 59.019 45.4973 58.8633C45.6195 58.8258 47.7069 58.1839 48.2886 58.005C48.362 57.9825 48.4511 58.0462 48.4806 58.1422C48.5102 58.2382 48.4859 58.3158 48.4262 58.3482L47.5048 58.9188C47.3749 59.0008 47.3185 59.2004 47.3776 59.3925L47.4799 59.7254C47.8009 60.7691 47.7658 61.8732 47.3772 62.7496L45.1865 67.6843C44.153 70.0134 43.6808 72.7587 43.8213 75.617L44.1357 81.9469C44.1672 82.554 44.4188 83.1634 44.8383 83.553C45.2283 83.9167 45.6864 84.0491 46.1117 83.9184L50.3892 82.6031C50.6727 82.5159 50.81 82.1443 50.6958 81.7729L50.5028 81.1455C50.4477 80.9662 50.3408 80.8098 50.2056 80.7182L49.9039 80.5027C49.7118 80.3655 49.5676 80.1225 49.5465 79.8626C49.5264 79.5535 49.6628 79.3012 49.8877 79.2321L51.0316 78.8804C51.3152 78.7932 51.4524 78.4216 51.3382 78.0502L51.0074 76.9745C50.7594 76.1678 50.8155 75.3235 51.1567 74.693L51.2249 74.5669C52.2436 72.6768 52.4403 70.1494 51.6844 67.7607C51.3084 66.5727 51.3686 65.3418 51.8511 64.3875L52.4495 63.2013C52.505 63.0861 52.5077 62.9381 52.4497 62.8017C52.2433 62.3045 51.9997 61.8258 51.725 61.3846C51.5238 61.061 51.1067 60.3833 50.9105 60.0582C49.733 58.2127 49.1795 55.8038 49.4808 53.7208C49.6651 52.3886 50.194 51.2027 50.9594 50.3857C51.0112 50.3277 51.1061 50.3406 51.163 50.4212C51.2179 50.4954 51.2299 50.6039 51.1821 50.6747C49.6213 53.0118 49.6599 56.8265 51.4428 59.6142C51.6391 59.9393 52.064 60.6426 52.2495 60.95C53.0974 62.3503 53.6562 63.9936 53.8443 65.6318L54.6311 73.968L54.657 74.2264C54.7295 75.2624 55.1541 76.2952 55.7983 77.0502C55.8287 77.0969 55.966 77.265 55.9924 77.2989C56.2895 77.6561 56.4108 78.1724 56.5536 78.6191L56.8646 79.6308C56.9287 79.8564 57.0153 80.1381 57.2004 80.2704C57.3709 80.4072 57.5637 80.425 57.7308 80.3596L62.3603 78.9361C62.4043 78.9226 62.5754 78.87 62.6194 78.8564C62.8833 78.7402 62.9872 78.3298 62.8505 77.9724L62.695 77.4666C62.6595 77.3513 62.6163 77.2455 62.5506 77.1535C62.4829 77.0552 62.38 76.9817 62.2928 76.9244L61.9069 76.6436C61.566 76.405 61.3722 75.8619 61.4643 75.4481C61.4934 75.299 61.6766 74.4157 61.7095 74.2444C61.8761 73.3592 62.2242 71.7594 62.3781 70.8851C62.7157 68.868 62.3131 66.5669 61.3077 64.6544C61.0464 64.118 60.5579 63.4342 60.2488 62.9336C59.8612 62.3169 58.9252 60.9087 58.5748 60.2736C58.032 59.3262 57.71 58.2618 57.438 57.2031C57.2714 56.5745 57.1098 55.9444 56.9628 55.3097C56.9431 55.2107 56.9801 55.1222 57.0534 55.0997C57.1267 55.0771 57.207 55.1295 57.2464 55.2226C57.6062 56.1491 57.9299 57.1149 58.2604 58.0505C58.6105 59.0151 59.072 59.8894 59.637 60.7178C60.0246 61.2995 60.9704 62.7397 61.3374 63.3067C61.6396 63.7674 61.9086 64.2594 62.1404 64.7698C62.3182 65.1567 62.6279 65.4329 62.9587 65.4994C63.4549 65.5991 63.9676 65.6657 64.495 65.6928C65.0341 65.7232 65.4499 65.266 65.4868 64.6028C65.4895 64.4899 65.4971 64.3754 65.5116 64.2658C65.5784 63.3693 65.7802 62.5293 65.986 61.7021C66.1685 60.9381 66.3744 60.181 66.5941 59.4336C66.6213 59.3482 66.6956 59.3113 66.77 59.3445C66.8464 59.3841 66.8975 59.4805 66.8839 59.5758C66.7307 60.7653 66.5101 62.0665 66.302 63.2168C66.0709 64.6405 66.0748 66.1671 66.336 67.6777C66.5526 68.8866 66.9599 71.1512 67.1824 72.3793C67.2596 72.8392 67.4094 73.4308 67.3486 73.877C67.3133 74.3364 67.0491 74.7821 66.8737 75.1514L66.7412 75.4164L66.7246 75.4496L66.7158 75.4733C66.6184 75.6785 66.6493 75.9703 66.7808 76.1892C66.9113 76.4224 67.1195 76.8209 67.2461 77.0413C67.3894 77.2635 67.6263 77.3729 67.8248 77.3049L68.8221 76.9982C69.6463 76.7378 70.4939 76.4841 71.3201 76.2301C71.3592 76.2181 71.4716 76.1835 71.5059 76.173C71.8725 76.0602 72.187 75.7953 72.3898 75.4106C72.653 74.9442 72.6823 74.3956 72.6488 73.7821C72.6392 73.3505 72.5827 70.922 72.5671 70.4362C72.5535 69.9919 72.5477 69.5031 72.5742 69.0674C72.6509 67.6982 72.9467 66.3808 73.465 65.2473C74.114 63.9124 74.4142 62.3483 74.4228 60.6707C74.4245 60.572 74.4841 60.5047 74.5604 60.5092C74.6367 60.5138 74.7132 60.5884 74.728 60.689C74.9624 62.0256 74.8633 63.3736 74.5143 64.5532C74.3753 65.0234 74.3774 65.5695 74.5368 66.0881L74.6707 66.5235C74.7357 66.7348 74.8105 66.9781 74.9048 67.1804C75.1327 67.678 75.4906 68.0936 75.9 68.3461L76.1821 68.5327L77.3134 69.2711L77.8777 69.6443C78.0295 69.7378 78.1735 69.8757 78.2648 70.0508C78.4729 70.4144 78.468 70.8854 78.2827 71.1877C78.2106 71.336 78.0615 71.6342 77.9894 71.7825C77.9582 71.8552 77.8909 71.967 77.8666 72.0445C77.7907 72.2501 77.8254 72.5197 77.9383 72.7303L78.1219 73.0663L78.1454 73.0381Z" fill="white"/>
<path d="M92.5947 74.5546C92.8894 67.424 91.4093 59.7955 87.9582 52.4952C78.4409 32.3635 57.4794 22.2447 41.2289 29.9272C32.2094 34.1914 26.5064 43.051 24.8467 53.5253C25.3453 40.9863 31.3324 29.9965 41.7047 25.0936C57.9552 17.4111 78.9198 27.5367 88.4371 47.6684C92.6861 56.6566 93.9506 66.1351 92.5955 74.5554L92.5947 74.5546Z" fill="#3258A5"/>
<path d="M51.5157 118.167C33.6009 118.168 15.1982 106.086 5.83465 86.2797C-0.0633313 73.8039 -1.5502 60.1305 1.64965 47.7788C4.89823 35.2382 12.5693 25.5504 23.2507 20.5012L36.5587 14.2097C44.245 10.5759 52.9302 9.65922 61.6771 11.558C70.0874 13.3844 78.1659 17.714 85.0391 24.0802C86.2321 25.1857 87.3977 26.3627 88.5024 27.577C89.6177 28.8035 90.698 30.0985 91.7137 31.4263C92.2253 32.0962 92.7308 32.7867 93.2158 33.4788C94.1956 34.8789 95.1305 36.3429 95.9938 37.8305C96.8709 39.341 97.6961 40.9116 98.446 42.4982C103.561 53.3174 105.386 65.3768 103.586 76.4533C101.218 91.0152 93.0026 102.612 81.0429 108.271C81.0368 108.274 81.03 108.277 81.0239 108.28L67.7212 114.568C62.5557 117.011 57.0581 118.167 51.5157 118.168V118.167ZM52.7528 16.3695C47.9748 16.3695 43.3048 17.357 39.0079 19.3889L25.6999 25.6805C16.5823 29.9912 10.0113 38.349 7.1959 49.2154C4.33179 60.2713 5.68848 72.5645 11.0147 83.8306C21.9253 106.909 46.2663 118.373 65.2728 109.387L78.5663 103.103C78.5709 103.1 78.5762 103.098 78.5808 103.096C88.8168 98.2569 95.869 88.2105 97.9306 75.5329C99.5469 65.59 97.8903 54.7274 93.2668 44.9459C92.5854 43.5047 91.8362 42.078 91.0399 40.706C90.2572 39.3577 89.4099 38.0315 88.5222 36.7632C88.0829 36.1366 87.6261 35.5115 87.1632 34.9055C86.2458 33.7064 85.2706 32.537 84.2641 31.4301C83.269 30.336 82.2199 29.277 81.1465 28.282C72.7437 20.499 62.5237 16.3688 52.7544 16.3688L52.7528 16.3695Z" fill="#000006"/>
<path d="M16.3823 63.0342C13.4953 47.5055 18.0755 29.9288 30.9107 19.9448C46.6663 7.52145 68.6138 11.1103 83.1277 23.689C88.7523 28.448 93.3881 34.3391 96.8026 40.8584C107.138 60.1024 106.302 87.1789 88.731 101.965C78.3458 110.871 63.3918 112.708 50.8216 107.77C43.4215 105.002 36.8513 100.255 31.5898 94.4069C31.0774 93.8009 31.9164 93.0228 32.4797 93.5619C39.6103 100.635 48.9084 105.905 58.9023 107.269C83.8113 110.641 100.678 89.6715 99.3736 65.9897C98.9381 55.4446 95.2221 45.0967 89.117 36.5104C82.38 26.9687 72.3329 19.4682 60.8285 16.9497C46.0047 13.4963 30.6008 20.3094 23.1733 33.625C19.4101 40.1153 17.5167 47.7164 17.3005 55.2383C17.2129 57.7758 17.3263 60.3254 17.5997 62.8637C17.6804 63.6364 16.5308 63.8085 16.3838 63.0342H16.3823Z" fill="#000006"/>
</svg>
