<svg width="111" height="79" viewBox="0 0 111 79" fill="none" xmlns="http://www.w3.org/2000/svg">
<path d="M48.2713 13.8233C74.9382 6.19253 99.2831 9.55226 102.65 21.3178L107.106 36.8899C108.111 40.4057 107.132 44.2801 104.55 48.1865C99.8807 55.2356 89.9789 62.3966 77.1209 67.7533C73.2945 69.3498 69.2138 70.7872 64.9222 72.0152C38.2629 79.6437 13.9172 76.2847 10.5506 64.5184L6.09461 48.9463C2.72803 37.1808 21.6112 21.4518 48.2713 13.8233Z" fill="#3578FF"/>
<path d="M23.8076 74.5214L19.127 58.1651C19.127 58.1651 23.5038 62.3973 35.044 60.5077C46.5841 58.6181 50.4326 58.0547 50.4326 58.0547L54.808 73.3444C54.808 73.3444 35.9309 75.1076 35.5685 75.1365C35.2061 75.1655 23.8076 74.5206 23.8076 74.5206V74.5214Z" fill="#A5D5FF"/>
<path d="M99.7492 30.5625C99.7492 30.5625 102.358 40.3882 104.55 48.1773C99.8809 55.2264 89.9791 62.3874 77.1211 67.7441C75.1409 60.8229 71.5703 48.3448 71.5703 48.3448L99.75 30.5625H99.7492Z" fill="#3258A5"/>
<path d="M60.4748 56.441C87.1373 48.8107 106.021 33.0835 102.652 21.3132C99.2841 9.54295 74.9392 6.18679 48.2767 13.817C21.6142 21.4473 2.73063 37.1745 6.09903 48.9448C9.46744 60.715 33.8123 64.0712 60.4748 56.441Z" fill="#A5D5FF"/>
<path d="M37.7497 78.9696C34.5498 78.9696 31.4885 78.7732 28.6092 78.3765C17.1459 76.796 9.75421 72.1527 7.7938 65.3031L3.33929 49.7347C1.37887 42.8843 5.19615 35.0343 14.0884 27.6296C22.3541 20.7457 34.2148 14.8637 47.4847 11.0663C56.5734 8.46556 65.7908 7.01752 74.1418 6.8782C75.6142 6.85384 77.0751 6.86982 78.4844 6.92692C79.181 6.95509 79.8844 6.99392 80.5765 7.04264C94.1776 8.00572 103.226 12.9216 105.403 20.5303L109.859 36.0986C111.819 42.949 108.002 50.799 99.1094 58.2037C90.8437 65.0876 78.983 70.9696 65.7131 74.7671C56.0283 77.5383 46.3922 78.9696 37.7504 78.9704L37.7497 78.9696ZM75.4665 12.5965C75.0584 12.5965 74.648 12.6003 74.2362 12.6072C66.38 12.7381 57.6743 14.11 49.0607 16.5744C36.5399 20.1572 25.4215 25.6471 17.7542 32.0316C10.8147 37.8108 7.56845 43.6883 8.84747 48.158L13.302 63.7263C14.581 68.1961 20.4455 71.4667 29.3911 72.7001C39.2761 74.0636 51.6141 72.8409 64.1357 69.2581C76.6564 65.6753 87.774 60.1862 95.4414 53.8009C102.381 48.0217 105.627 42.1435 104.349 37.6746L99.8936 22.1062C98.4395 17.0236 91.0668 13.5284 80.1714 12.7572C79.538 12.7122 78.8932 12.6772 78.2544 12.6513C77.3454 12.6148 76.412 12.5965 75.4665 12.5965Z" fill="#000006"/>
<path d="M38.2381 60.8601C27.7546 61.9351 8.64157 61.0292 5.15393 48.73C3.48283 42.0729 7.68686 35.6222 12.1292 31.0916C28.9842 14.2229 62.9659 4.52285 86.3363 8.63781C94.4513 10.0569 105.022 14.7375 104.594 24.4581C103.823 36.2732 89.0344 45.4113 79.2933 49.8697C78.5617 50.1803 78.0744 49.1555 78.7429 48.7718C80.4855 47.8148 82.1955 46.8038 83.8612 45.7326C85.5286 44.6645 87.1616 43.5484 88.7299 42.3561C94.2313 38.0904 101.219 31.7128 101.464 24.3797C101.2 12.9203 82.7482 11.4212 74.0858 11.7128C56.6424 12.4003 38.9012 17.6131 24.0112 26.7566C17.546 30.8038 6.62557 39.4471 8.40631 47.9351C10.5373 56.7749 24.436 58.9736 32.2289 59.473C34.2023 59.6024 36.1871 59.6534 38.1741 59.6329C38.9575 59.6352 39.0063 60.7741 38.2381 60.8586V60.8601Z" fill="#000006"/>
<path d="M58.8598 50.7936C80.2143 44.6824 95.516 32.7066 93.0372 24.045C90.5584 15.3833 71.2378 13.3157 49.8834 19.4269C28.5289 25.5381 13.2272 37.5139 15.706 46.1755C18.1848 54.8372 37.5054 56.9048 58.8598 50.7936Z" fill="#3578FF"/>
<path d="M49.8764 19.4325C71.2346 13.3214 90.5539 15.3929 93.0336 24.0576C93.265 24.8676 93.3404 25.7066 93.2742 26.5722L93.2765 26.5791C92.5776 34.9179 78.2053 45.2681 58.8539 50.8052C41.8002 55.6846 26.0408 55.3503 19.1249 50.5974C17.383 49.4036 16.1976 47.9305 15.6989 46.1863C13.2193 37.5209 28.5258 25.5414 49.8771 19.4318L49.8764 19.4325Z" fill="#3258A5"/>
<path d="M52.2503 23.959C71.0824 18.5703 88.3348 19.8562 93.275 26.5741L93.2773 26.581C92.5784 34.9198 78.2061 45.27 58.8548 50.8071C41.8011 55.6864 26.0417 55.3522 19.1258 50.5993C19.1014 50.5391 19.0854 50.4835 19.0672 50.4211C16.5875 41.7557 31.4463 29.9118 52.2503 23.959Z" fill="#3578FF"/>
<path d="M67.025 28.1027L67.3815 27.9821L67.5532 27.9235C67.8328 27.8266 68.0316 27.6832 68.0075 27.5868C68.0059 27.5805 68.0027 27.5679 68.0006 27.5595L67.9854 27.4987C67.9052 27.1512 67.7714 26.6456 67.6842 26.2976L67.5812 25.8868C67.4596 25.6499 66.856 25.5562 66.0937 25.6561C65.886 25.6814 65.2373 25.7661 65.0101 25.7964C63.8783 25.9376 62.6603 26.2029 61.5276 26.5605C60.6636 26.8329 58.3125 27.73 57.4325 28.0487C57.0287 28.2012 56.482 28.3895 56.1209 28.5469C55.7154 28.7199 55.3591 28.8962 55.0264 29.0843C54.5971 29.3279 52.7494 30.3594 52.3679 30.5731L52.1015 30.7224C51.5832 31.0239 50.7861 31.1503 50.1268 31.3579C46.3204 32.4551 43.4284 34.3344 43.5707 35.6177C43.6039 35.8879 43.735 36.3006 43.7963 36.5726C43.861 36.748 43.7898 36.9597 43.5639 37.1879C43.3917 37.3826 42.9531 37.6441 42.6431 37.8399L40.7293 39.0484C40.4611 39.2181 40.037 39.4827 39.7818 39.6491C39.0336 40.1353 38.4463 40.6302 38.0608 41.1034C37.8858 41.3143 37.1268 42.3357 36.949 42.563C36.7815 42.7766 36.5205 43.0024 36.1822 43.2232C35.8737 43.4253 35.4257 43.649 35.06 43.8432C34.7915 43.9841 34.223 44.2782 33.9495 44.427C32.9023 44.9881 32.2246 45.5903 31.9776 46.1201C31.8767 46.3236 31.2476 47.3949 31.1927 47.5891C31.0228 48.1508 31.772 48.5222 33.0708 48.524C33.5351 48.5301 34.0943 48.4745 34.6463 48.3895C34.9774 48.3332 35.3726 48.2564 35.7141 48.1864C36.8773 47.9503 37.9999 47.8827 38.7757 48.0023L38.9058 48.0253C38.9199 48.0263 38.9274 48.0288 38.9345 48.0293L38.9561 48.0328C39.1936 48.0713 39.6526 47.974 39.9131 47.8284C39.9256 47.8231 39.9554 47.8045 39.9739 47.7954L40.5073 47.499L40.4834 47.5139C40.6208 47.4282 40.8575 47.3532 41.0593 47.3316C41.2285 47.3181 41.5595 47.2886 41.7353 47.2734C42.1344 47.2402 42.9451 47.1683 43.3508 47.1334C44.2377 47.0625 45.3505 46.6253 45.5622 46.258L45.7689 45.9255C45.8214 45.8321 45.9741 45.7247 46.179 45.6332L46.5591 45.4689L46.7461 45.3885C47.1966 45.202 47.435 44.9685 47.355 44.8148C47.3419 44.7624 47.1174 43.8673 47.0549 43.6179C47.047 43.5864 47.1246 43.538 47.2221 43.5136C47.3195 43.4891 47.3893 43.4917 47.4091 43.5157L47.7832 43.8786C47.8375 43.9296 48.018 43.9333 48.2129 43.8845L48.5508 43.7997C49.6099 43.5341 50.6603 43.4266 51.4267 43.5085L55.7415 43.9704C57.7782 44.1882 60.3181 44.0993 63.0807 43.7139L69.1993 42.859C69.7863 42.7764 70.4168 42.5916 70.8682 42.3536C71.2892 42.1322 71.5016 41.9051 71.4558 41.7228L70.9959 39.8887C70.9654 39.7671 70.6353 39.7452 70.2584 39.8397L69.6217 39.9994C69.4397 40.045 69.2701 40.112 69.1571 40.1849L68.8944 40.3488C68.7272 40.4532 68.4676 40.5472 68.2149 40.5861C67.9151 40.6301 67.6992 40.5951 67.675 40.4987L67.552 40.0082C67.5215 39.8866 67.1914 39.8647 66.8146 39.9592L65.723 40.2329C64.9043 40.4383 64.1065 40.5069 63.5667 40.4195L63.4587 40.402C61.8396 40.1419 59.4567 40.3339 57.0287 40.9517C55.8212 41.259 54.6541 41.369 53.8306 41.2525L52.8068 41.1082C52.7069 41.0954 52.5658 41.1107 52.4244 41.1529C51.9098 41.3042 51.406 41.4706 50.9323 41.6474C50.585 41.7768 49.8582 42.0459 49.5103 42.1733C47.5235 42.9255 45.114 43.4518 43.1762 43.5457C41.9353 43.6096 40.8988 43.4974 40.2597 43.2344C40.2138 43.2169 40.2439 43.1715 40.3317 43.1361C40.413 43.1024 40.5191 43.0847 40.5779 43.0989C42.5237 43.56 46.1828 43.1147 49.1847 41.9765C49.5326 41.8491 50.2853 41.5734 50.6143 41.4531C52.1132 40.9034 53.7908 40.4604 55.3942 40.1897L63.5218 38.8912L63.774 38.8502C64.7793 38.7006 65.8474 38.3882 66.6906 38.0052C66.741 37.9859 66.9275 37.9034 66.9649 37.8874C67.3623 37.7097 67.8793 37.5957 68.3336 37.4795L69.3603 37.2221C69.5882 37.1671 69.8741 37.0954 70.0353 36.9948C70.1981 36.9005 70.2512 36.8092 70.2198 36.7391L69.722 34.7541C69.7173 34.7352 69.6989 34.6619 69.6942 34.643C69.6322 34.5338 69.2588 34.5316 68.891 34.635L68.3777 34.7637C68.2608 34.793 68.1514 34.8249 68.0511 34.8657C67.9443 34.9081 67.8547 34.9639 67.7836 35.0107L67.4427 35.221C67.1506 35.4057 66.5944 35.5563 66.2155 35.56C66.0782 35.5632 65.2668 35.5773 65.1089 35.5812C64.2926 35.6033 62.8261 35.6213 62.0178 35.6479C60.1499 35.7176 57.8718 36.1619 55.853 36.8419C55.2907 37.0231 54.5448 37.326 54.0078 37.5252C53.345 37.7739 51.822 38.3653 51.1485 38.5988C50.1401 38.9564 49.061 39.2248 47.9966 39.4694C47.3637 39.617 46.7303 39.7625 46.0953 39.9017C45.9968 39.9219 45.919 39.9147 45.9111 39.8833C45.9032 39.8518 45.9684 39.8087 46.0648 39.7801C47.0191 39.5096 48.0041 39.2514 48.9615 38.9935C49.9504 38.7232 50.8736 38.4115 51.7723 38.0569C52.4015 37.8122 53.957 37.2127 54.5684 36.9792C55.0659 36.7876 55.5872 36.6078 56.1191 36.4432C56.5227 36.3175 56.845 36.1431 56.9704 35.9825C57.1586 35.7414 57.3181 35.4964 57.4426 35.2491C57.5725 34.996 57.2124 34.8546 56.5845 34.9118C56.4769 34.9232 56.3687 34.9325 56.2665 34.9381C55.4207 35.0076 54.6542 35.0082 53.9008 35.0055C53.2035 35.0066 52.5171 34.9961 51.8427 34.978C51.766 34.975 51.7446 34.9447 51.7903 34.9065C51.8424 34.8667 51.9443 34.8323 52.033 34.8278C53.1431 34.7656 54.3476 34.7219 55.4099 34.6895C56.7297 34.637 58.1919 34.4641 59.6868 34.1739C60.8846 33.9381 63.1287 33.4957 64.346 33.255C64.8006 33.1677 65.395 33.032 65.8108 33.0102C66.244 32.9751 66.6213 33.0475 66.9421 33.0874L67.1711 33.1191L67.1997 33.1231L67.2208 33.1245C67.399 33.1466 67.6841 33.0996 67.9182 33.0141C68.1659 32.9275 68.5863 32.7865 68.8209 32.7031C69.0605 32.6118 69.2094 32.4898 69.1814 32.4055L69.0742 31.9779C68.9788 31.6253 68.8944 31.261 68.8055 30.9068C68.8013 30.89 68.7892 30.8418 68.7856 30.8271C68.7461 30.6699 68.5513 30.5539 68.2209 30.5031C67.8235 30.4334 67.3038 30.4813 66.7103 30.5656C66.2953 30.6184 63.9598 30.9167 63.4919 30.9783C63.0639 31.0344 62.5949 31.0919 62.1828 31.1284C60.8864 31.2463 59.6804 31.2569 58.6921 31.1438C57.5354 30.9927 56.0942 31.0289 54.4897 31.2129C54.3956 31.2231 54.3423 31.2031 54.3609 31.1672C54.3795 31.1314 54.4652 31.0876 54.5643 31.0695C55.8876 30.8111 57.1596 30.706 58.2237 30.7355C58.6479 30.7472 59.171 30.685 59.6973 30.5531L60.1391 30.4423C60.3536 30.3885 60.6005 30.3266 60.8117 30.2602C61.3307 30.0989 61.7954 29.8865 62.1137 29.6686L62.345 29.517L63.2633 28.9102L63.7259 28.607C63.8438 28.5262 64.0028 28.444 64.1875 28.3821C64.5744 28.245 65.0244 28.1945 65.2792 28.2465C65.4077 28.2632 65.6653 28.2989 65.7938 28.3157C65.8575 28.322 65.952 28.3406 66.0217 28.3432C66.2043 28.3553 66.4689 28.309 66.6916 28.2331L67.0476 28.1104L67.025 28.1027Z" fill="white"/>
</svg>
