<svg width="107" height="102" viewBox="0 0 107 102" fill="none" xmlns="http://www.w3.org/2000/svg">
<path d="M68.5897 32.5411C89.7104 50.5198 100.396 72.6516 92.4634 81.9702L81.9647 94.3044C79.5939 97.0893 75.8254 98.4186 71.1432 98.4323C62.6879 98.4483 51.2422 94.1689 39.6609 86.4285C36.2129 84.127 32.7557 81.524 29.3571 78.631C8.24178 60.6569 -2.44342 38.5252 5.48959 29.2066L15.9883 16.8723C23.9205 7.5537 47.4744 14.5663 68.5905 32.5404L68.5897 32.5411Z" fill="#3578FF"/>
<path d="M4.49609 45.7906L15.5239 32.8359C15.5239 32.8359 14.4238 38.8245 22.3872 47.3871C30.3515 55.9498 32.9514 58.842 32.9514 58.842L22.643 70.9524C22.643 70.9524 10.7214 56.2109 10.4961 55.9246C10.2707 55.6391 4.49609 45.7914 4.49609 45.7914V45.7906Z" fill="#A5D5FF"/>
<path d="M83.1509 84.6788C83.1509 84.6788 76.4139 92.2928 71.1425 98.4314C62.6872 98.4474 51.2414 94.168 39.6602 86.4276C44.3263 80.946 52.7397 71.0625 52.7397 71.0625L83.1516 84.6788H83.1509Z" fill="#3258A5"/>
<path d="M92.4559 81.9826C100.392 72.6606 89.7077 50.5297 68.5913 32.5518C47.4748 14.574 23.9228 7.55696 15.9864 16.8789C8.04995 26.2009 18.7345 48.3318 39.851 66.3096C60.9674 84.2875 84.5195 91.3045 92.4559 81.9826Z" fill="#A5D5FF"/>
<path d="M71.0847 101.289C67.7121 101.289 63.9184 100.679 59.7852 99.4483C49.4753 96.3779 38.0097 89.7597 27.4996 80.8126C16.9888 71.8663 8.62487 61.6044 3.94652 51.9173C-1.08507 41.497 -1.31271 32.7707 3.30548 27.3455L13.8011 15.0151C18.4201 9.58913 27.0703 8.42049 38.1605 11.7239C48.4696 14.7943 59.9359 21.4125 70.446 30.3596C77.6458 36.4883 83.9565 43.3615 88.6957 50.237C89.5339 51.4529 90.3295 52.6786 91.0604 53.88C91.4273 54.4837 91.7852 55.0912 92.1224 55.6858C98.8518 67.5427 99.7699 77.8001 94.6401 83.8267L84.1438 96.1571C81.2469 99.561 76.7619 101.289 71.084 101.289H71.0847ZM18.1643 18.7288L7.66864 31.0593C4.65531 34.5994 5.17911 41.2938 9.10602 49.4262C13.4448 58.4114 21.2964 68.0086 31.2134 76.4502C41.1304 84.8918 51.8582 91.1088 61.4212 93.9577C70.0767 96.5355 76.768 95.9835 79.7821 92.4434L90.2785 80.113C93.7052 76.0871 92.532 68.0125 87.1403 58.5134C86.8312 57.9691 86.5039 57.4118 86.1666 56.8575C85.4913 55.7483 84.7551 54.6139 83.9785 53.4879C79.5202 47.0197 73.5568 40.5301 66.733 34.722C56.816 26.2804 46.0881 20.0627 36.5251 17.2146C27.8719 14.6367 21.1784 15.1879 18.1643 18.7288Z" fill="#000006"/>
<path d="M23.8616 50.2403C17.1604 42.1071 7.33093 25.6898 15.6408 15.9746C20.259 10.8965 27.9575 10.825 34.1905 12.0149C57.57 16.7077 84.4654 39.6312 93.9812 61.3701C97.2937 68.9133 99.2503 80.3073 90.9191 85.3336C80.6542 91.2354 64.8559 83.9815 55.7489 78.3393C55.085 77.9023 55.669 76.9293 56.358 77.2734C63.2868 80.8311 70.8338 83.9274 78.6047 84.637C86.3984 85.364 93.6172 82.7131 93.3295 73.7302C92.9138 66.0812 88.9008 59.1036 84.6366 52.8737C74.4044 38.7298 60.2392 26.8448 44.3801 19.5094C37.4299 16.3674 24.1851 12.0606 18.1037 18.2441C11.9225 24.914 17.7893 37.7043 21.6895 44.4694C22.6747 46.1847 23.7314 47.865 24.849 49.5087C25.286 50.1558 24.3511 50.8357 23.8639 50.2411L23.8616 50.2403Z" fill="#000006"/>
<path d="M84.8528 75.4949C90.6931 68.635 81.7173 51.4013 64.8048 37.0026C47.8923 22.6038 29.4475 16.4924 23.6071 23.3524C17.7668 30.2123 26.7425 47.4459 43.655 61.8447C60.5676 76.2435 79.0124 82.3549 84.8528 75.4949Z" fill="#3578FF"/>
<path d="M64.8047 36.983C81.7214 51.3827 90.6951 68.6169 84.8527 75.4794C84.3068 76.1205 83.6498 76.6488 82.8923 77.0721L82.8877 77.0775C75.5569 81.114 58.9798 74.878 43.6536 61.8312C30.1469 50.3336 21.6977 37.0257 21.8257 28.6351C21.8553 26.5239 22.4256 24.7211 23.6011 23.3401C29.4427 16.4767 47.8942 22.5879 64.8055 36.983H64.8047Z" fill="#3258A5"/>
<path d="M62.351 41.4679C77.2669 54.1645 85.7503 69.2418 82.8923 77.0758L82.8877 77.0812C75.5569 81.1177 58.9798 74.8817 43.6536 61.8349C30.1469 50.3373 21.6977 37.0294 21.8257 28.6388C21.8622 28.5847 21.8995 28.5413 21.9414 28.4919C27.783 21.6285 45.8736 27.442 62.3518 41.4679H62.351Z" fill="#3578FF"/>
<path d="M68.1634 59.4722L68.4345 59.7333L68.5656 59.8587C68.7801 60.0624 68.9978 60.1738 69.0707 60.1091C69.0755 60.1049 69.085 60.0965 69.0913 60.0909L69.1373 60.0501C69.4033 59.8232 69.7825 59.4781 70.0456 59.2447L70.3563 58.9693C70.5066 58.7555 70.3076 58.1798 69.866 57.5508C69.7472 57.3786 69.3716 56.8432 69.2396 56.6559C68.5899 55.7189 67.7919 54.7613 66.9529 53.9205C66.3133 53.279 64.4369 51.6033 63.7494 50.9685C63.4285 50.68 63.0099 50.2813 62.7045 50.0327C62.3649 49.7519 62.0454 49.516 61.7264 49.3064C61.3142 49.0363 59.5545 47.8659 59.1905 47.6247L58.9363 47.4561C58.432 47.1333 57.951 46.4854 57.4632 45.9959C54.7352 43.1236 51.7498 41.4106 50.6958 42.1124C50.4754 42.263 50.1761 42.5642 49.9672 42.7405C49.8442 42.8764 49.6263 42.9085 49.322 42.8112C49.072 42.7464 48.6398 42.4761 48.3247 42.2899L46.3797 41.1406C46.1068 40.9797 45.6787 40.7236 45.4147 40.5727C44.6423 40.1295 43.9373 39.8325 43.345 39.7042C43.0794 39.6442 41.8348 39.4316 41.5537 39.3765C41.2895 39.3243 40.9709 39.1949 40.6209 38.995C40.301 38.813 39.8973 38.5174 39.5578 38.2813C39.3099 38.1072 38.7888 37.7366 38.5317 37.5617C37.5549 36.8879 36.7141 36.5591 36.1368 36.5786C35.9122 36.5807 34.6845 36.5054 34.4894 36.5441C33.9201 36.646 33.9444 37.475 34.5469 38.6239C34.7575 39.037 35.0661 39.5065 35.3969 39.9562C35.6001 40.2237 35.8509 40.5385 36.0709 40.809C36.8179 41.7313 37.399 42.6932 37.6554 43.4327L37.6958 43.5581C37.7015 43.5709 37.7028 43.5788 37.7057 43.5852L37.7126 43.6058C37.7896 43.8331 38.088 44.1952 38.3361 44.3601C38.3466 44.3687 38.3768 44.3868 38.3933 44.399L38.9001 44.7375L38.8759 44.7231C39.0146 44.806 39.1901 44.9816 39.3029 45.1503C39.3934 45.2938 39.5731 45.5732 39.668 45.7218C39.8827 46.0597 40.3224 46.7441 40.5415 47.087C41.0159 47.8392 41.9151 48.6265 42.3342 48.6489L42.7206 48.6823C42.8265 48.6869 42.9912 48.7736 43.1664 48.9137L43.4866 49.1759L43.6437 49.3052C44.016 49.6197 44.3308 49.7256 44.4278 49.5859C44.4674 49.5507 45.1443 48.9506 45.3329 48.7833C45.3567 48.7622 45.4351 48.8091 45.5017 48.8843C45.5684 48.9595 45.5986 49.0222 45.5868 49.0505L45.4441 49.5442C45.4248 49.615 45.5055 49.7763 45.6388 49.9266L45.8699 50.1873C46.5943 51.0043 47.1766 51.8846 47.4616 52.5988L49.0651 56.6203C49.8222 58.5184 51.081 60.7238 52.7022 62.9928L56.294 68.0178C56.6391 68.4996 57.0936 68.9739 57.5113 69.2661C57.9004 69.5389 58.1973 69.6248 58.3353 69.5025L59.7223 68.2726C59.8143 68.1911 59.6799 67.8895 59.4221 67.5988L58.9866 67.1075C58.8622 66.9672 58.7247 66.8473 58.6086 66.7802L58.3433 66.6215C58.1745 66.5205 57.9716 66.3333 57.8202 66.1274C57.6424 65.8821 57.5725 65.6755 57.6454 65.6109L58.0164 65.282C58.1083 65.2005 57.9739 64.8988 57.7162 64.6081L56.9695 63.7661C56.4096 63.1345 55.9787 62.4601 55.8039 61.9437L55.7689 61.8404C55.243 60.2923 53.9671 58.2722 52.2987 56.4032C51.4689 55.4738 50.83 54.4914 50.5488 53.7112L50.1986 52.7414C50.1634 52.6473 50.0843 52.5294 49.9818 52.4234C49.6104 52.0364 49.2308 51.6658 48.8562 51.3264C48.5817 51.0774 48.0088 50.5558 47.7358 50.3055C46.1552 48.8868 44.5752 46.9931 43.5921 45.3222C42.9592 44.254 42.5751 43.2875 42.5074 42.6044C42.5013 42.556 42.555 42.5622 42.6267 42.624C42.694 42.6807 42.7587 42.7665 42.7737 42.8249C43.2761 44.7519 45.3665 47.7866 47.7562 49.9293C48.0292 50.1796 48.6199 50.7213 48.8779 50.958C50.0548 52.0363 51.2217 53.3204 52.2037 54.6163L57.1171 61.218L57.2701 61.4226C57.8682 62.2441 58.6377 63.048 59.3641 63.6214C59.4044 63.6573 59.5631 63.7852 59.5946 63.8111C59.9345 64.0826 60.2745 64.4885 60.5871 64.8379L61.2893 65.6299C61.4433 65.8067 61.6388 66.0272 61.8016 66.1246C61.9596 66.2262 62.064 66.2322 62.1106 66.1729L63.6118 64.8419C63.6261 64.8292 63.6816 64.78 63.6958 64.7674C63.7624 64.6636 63.5906 64.3325 63.3293 64.0538L62.9782 63.6579C62.8982 63.5677 62.8195 63.4853 62.7373 63.4149C62.6507 63.3395 62.5602 63.2854 62.4863 63.2436L62.1442 63.0366C61.8472 62.8612 61.457 62.4372 61.2776 62.1039C61.2109 61.984 60.8212 61.2731 60.7444 61.1353C60.3455 60.4236 59.6478 59.1353 59.2486 58.4328C58.3191 56.8129 56.8718 54.9985 55.3393 53.5192C54.9197 53.1034 54.3084 52.5801 53.8847 52.1948C53.3594 51.7205 52.1349 50.6396 51.6178 50.1491C50.8367 49.4182 50.1006 48.5848 49.392 47.7537C48.9689 47.2605 48.5473 46.7659 48.1305 46.267C48.067 46.189 48.0371 46.117 48.0609 46.0959C48.0847 46.0749 48.1526 46.1131 48.2224 46.1855C48.9023 46.9076 49.5858 47.6625 50.2562 48.393C50.952 49.1459 51.6535 49.8221 52.3809 50.4573C52.8872 50.9037 54.1339 52.0096 54.6221 52.4452C55.0207 52.799 55.42 53.1791 55.8111 53.5754C56.1085 53.8758 56.4106 54.0824 56.6092 54.1212C56.9071 54.1793 57.1952 54.2104 57.4689 54.2094C57.7503 54.2106 57.7063 53.8288 57.3643 53.2994C57.3043 53.2094 57.2459 53.118 57.1935 53.0301C56.7394 52.3136 56.3824 51.6364 56.0343 50.9692C55.7091 50.3533 55.3991 49.7418 55.1012 49.1376C55.0682 49.0684 55.0847 49.0359 55.1392 49.0591C55.1983 49.0873 55.2757 49.1619 55.3208 49.2383C55.8914 50.1917 56.4897 51.2369 57.0121 52.1614C57.6717 53.3044 58.5026 54.5194 59.4512 55.7106C60.2141 56.6636 61.6439 58.4487 62.4201 59.4167C62.7078 59.7794 63.1027 60.244 63.3151 60.6017C63.5472 60.9689 63.6594 61.335 63.7738 61.6364L63.8526 61.853L63.8625 61.8801L63.871 61.8994C63.9346 62.0668 64.1083 62.2978 64.2917 62.4664C64.4825 62.6464 64.8012 62.9547 64.983 63.1247C65.1741 63.2955 65.3499 63.3724 65.4104 63.3098L65.7338 63.0231C65.9973 62.7805 66.276 62.5424 66.5439 62.3048C66.5565 62.2936 66.593 62.2613 66.6041 62.2514C66.723 62.146 66.7336 61.9217 66.6243 61.6068C66.5004 61.2243 66.2168 60.7864 65.8673 60.2995C65.6282 59.9564 64.2817 58.0258 64.0102 57.6398C63.7622 57.2867 63.4939 56.8979 63.2704 56.55C62.5645 55.4569 61.9945 54.3956 61.6335 53.4712C61.2275 52.3809 60.5256 51.1231 59.6188 49.7875C59.5661 49.7089 59.5588 49.6527 59.5987 49.6531C59.6387 49.6534 59.7168 49.7095 59.7787 49.7889C60.6197 50.8428 61.303 51.92 61.7721 52.8739C61.9592 53.2541 62.2567 53.6886 62.6167 54.0946L62.9189 54.4355C63.0655 54.6009 63.2344 54.7913 63.3906 54.9483C63.7727 55.3346 64.1742 55.6501 64.5125 55.8336L64.7524 55.9701L65.7091 56.5094L66.1889 56.7823C66.3143 56.8503 66.46 56.9539 66.5999 57.0894C66.8996 57.3698 67.1529 57.745 67.2261 57.9935C67.2712 58.1147 67.3598 58.3584 67.4049 58.4795C67.4291 58.5387 67.4567 58.6305 67.4869 58.6933C67.5613 58.8602 67.7248 59.0733 67.8946 59.2361L68.1672 59.4957L68.1634 59.4722Z" fill="white"/>
</svg>
