<svg width="687" height="213" viewBox="0 0 687 213" fill="none" xmlns="http://www.w3.org/2000/svg">
<path d="M37.9559 69.6113C37.956 66.6777 40.6118 64.4643 43.4883 65.0003L117.244 78.7434L256.886 93.9229C259.55 94.2125 261.427 96.6824 261 99.3345L252.374 152.834L252.335 153.047C251.879 155.235 249.935 156.808 247.686 156.774L38.4483 153.633C35.5982 153.59 33.4487 151.023 33.8999 148.201L37.897 123.2C37.9362 122.955 37.9559 122.706 37.9559 122.458V69.6113ZM51.9891 122.458C51.9891 123.452 51.9104 124.445 51.7534 125.427L49.4671 139.727L239.811 142.584L245.573 106.846L115.203 92.6748L51.9891 80.8957V122.458Z" fill="white"/>
<path d="M117.244 78.7435L256.886 93.923C259.55 94.2125 261.427 96.6821 261 99.3343L252.374 152.833C252.004 155.131 250.008 156.809 247.686 156.774L38.4486 153.633C35.5983 153.59 33.4487 151.023 33.8999 148.201L37.897 123.2C37.9363 122.955 37.956 122.706 37.956 122.458V69.6115C37.956 66.6779 40.6118 64.4643 43.4884 65.0003L117.244 78.7435ZM51.9892 123.579C51.9892 123.827 51.9695 124.075 51.9302 124.321L50.3227 134.375C49.8715 137.197 52.0212 139.764 54.8715 139.807L235.769 142.523C238.09 142.558 240.086 140.88 240.456 138.582L244.786 111.725C245.214 109.073 243.337 106.603 240.673 106.314L115.203 92.6748L57.5217 81.9267C54.645 81.3906 51.9892 83.6042 51.9892 86.5379V123.579Z" fill="white"/>
<path d="M36.1475 169.032C36.213 168.066 37.0697 167.361 38.0381 167.376L205.365 169.883C223.782 170.159 237.571 186.861 234.352 204.994C233.557 209.461 229.662 212.717 225.113 212.717H43.2212C37.7922 212.716 33.495 208.127 33.8617 202.724L36.1475 169.032ZM43.2926 64.879L117.112 78.5985L218.743 89.6086C237.903 91.6844 251.302 109.546 247.93 128.518C245.074 144.59 230.983 156.218 214.659 155.974L38.2451 153.335C37.6458 153.326 37.2468 152.769 37.2874 152.171L43.2086 64.9443C43.2115 64.9017 43.2505 64.8712 43.2926 64.879ZM57.3353 81.775C54.4565 81.2406 51.7954 83.4517 51.7953 86.3791V123.34C51.7953 123.588 51.7774 123.838 51.7382 124.083L50.1319 134.119C49.6811 136.935 51.8344 139.494 54.6867 139.537L235.744 142.249C237.995 142.283 239.942 140.713 240.399 138.53L240.434 138.316L244.768 111.512C245.196 108.866 243.321 106.399 240.656 106.109L115.07 92.5036L57.3353 81.775ZM57.9279 0.128891L255.291 32.9072C260.437 33.7631 263.897 38.6462 262.987 43.7715C259.402 63.9356 240.808 77.8773 220.445 75.6704L119.154 64.6934L45.8555 51.0738L45.5842 51.031C44.7981 50.8965 44.2066 50.2114 44.2607 49.4158L47.0264 8.73035C47.4005 3.21553 52.4622 -0.77886 57.9279 0.128891Z" fill="white"/>
<path d="M285.223 107.13L280.807 104.606C277.967 102.984 274.38 104.699 273.862 107.929L267.831 145.49C267.308 148.75 270.234 151.513 273.459 150.805L278.383 149.722C280.257 149.31 281.691 147.796 281.999 145.901L287.521 111.946C287.835 110.019 286.919 108.099 285.223 107.13Z" fill="white"/>
<path d="M19.3379 121.068V76.4953C19.3379 73.7068 16.9475 71.5444 14.2174 71.8567L6.37082 72.7542C4.04979 73.0197 2.29225 75.0069 2.28176 77.3775L2.07144 119.555C2.07042 119.785 2.05278 120.013 2.01867 120.24L0.0530595 133.298C-0.25327 135.333 0.788444 137.332 2.61827 138.22L10.0159 141.811C12.7456 143.136 15.9691 141.475 16.505 138.453C17.9024 130.571 19.3379 121.954 19.3379 121.068Z" fill="white"/>
<path d="M214.561 116.893C217.147 116.926 219.215 119.049 219.182 121.635C219.149 124.22 217.026 126.289 214.44 126.255L175.338 125.749C172.753 125.716 170.684 123.593 170.718 121.008C170.751 118.422 172.874 116.354 175.459 116.387L214.561 116.893Z" fill="white"/>
<path d="M67.6872 109.596C68.039 107.035 70.4006 105.243 72.962 105.595L126.097 112.891C128.659 113.243 130.45 115.604 130.098 118.166C129.746 120.727 127.385 122.519 124.823 122.167L71.6883 114.871C69.1268 114.519 67.3354 112.158 67.6872 109.596Z" fill="white"/>
<path d="M425.19 61.6855H435.451V75.1211H436.509C437.778 70.8189 440.176 67.3277 443.702 64.6477C447.228 61.9676 451.882 60.6276 457.665 60.6276C465.211 60.6276 471.205 63.2019 475.648 68.3504C480.161 73.4989 482.418 80.058 482.418 88.0276C482.418 95.9973 480.161 102.556 475.648 107.705C471.205 112.853 465.211 115.428 457.665 115.428C451.882 115.428 447.228 114.088 443.702 111.408C440.176 108.728 437.778 105.201 436.509 100.828H435.451V133.73H425.19V61.6855ZM440.528 74.1689C437.143 77.2016 435.451 81.8212 435.451 88.0276C435.451 94.2341 437.143 98.8889 440.528 101.992C443.984 105.025 448.533 106.541 454.174 106.541C459.675 106.541 464.047 105.025 467.291 101.992C470.535 98.8889 472.157 94.2341 472.157 88.0276C472.157 81.8212 470.535 77.2016 467.291 74.1689C464.047 71.0657 459.675 69.5141 454.174 69.5141C448.533 69.5141 443.984 71.0657 440.528 74.1689Z" fill="white"/>
<path d="M407.31 114.37L398.53 86.2292H368.382L359.603 114.37H349.342L372.825 39.7866H394.087L417.571 114.37H407.31ZM371.133 77.3427H395.78L384.884 42.643H382.028L371.133 77.3427Z" fill="white"/>
<path d="M425.19 61.6831H435.451V75.1186H436.509C437.778 70.8164 440.176 67.3253 443.702 64.6452C447.228 61.9652 451.882 60.6252 457.665 60.6252C465.211 60.6252 471.205 63.1994 475.648 68.3479C480.161 73.4964 482.418 80.0555 482.418 88.0251C482.418 95.9948 480.161 102.554 475.648 107.702C471.205 112.851 465.211 115.425 457.665 115.425C451.882 115.425 447.228 114.085 443.702 111.405C440.176 108.725 437.778 105.199 436.509 100.826H435.451V133.727H425.19V61.6831ZM440.528 74.1664C437.143 77.1991 435.451 81.8187 435.451 88.0251C435.451 94.2316 437.143 98.8864 440.528 101.99C443.984 105.022 448.533 106.539 454.174 106.539C459.675 106.539 464.047 105.022 467.291 101.99C470.535 98.8864 472.157 94.2316 472.157 88.0251C472.157 81.8187 470.535 77.1991 467.291 74.1664C464.047 71.0632 459.675 69.5116 454.174 69.5116C448.533 69.5116 443.984 71.0632 440.528 74.1664Z" fill="white"/>
<path d="M407.31 114.367L398.53 86.2266H368.382L359.603 114.367H349.342L372.825 39.7842H394.087L417.571 114.367H407.31ZM371.133 77.3402H395.78L384.884 42.6406H382.028L371.133 77.3402Z" fill="white"/>
<path d="M515.845 60.6031C528.852 60.7679 539.346 71.3637 539.346 84.4105V90.0495H497.053V91.6159C497.053 99.9208 503.786 106.653 512.091 106.653H515.537C522.43 106.653 528.24 102.015 530.016 95.6885H538.999C537.066 106.898 527.298 115.425 515.537 115.425H512.091C498.941 115.425 488.281 104.765 488.281 91.6159V84.4105C488.281 71.3637 498.775 60.7679 511.783 60.6031L512.091 60.6013H515.537L515.845 60.6031ZM512.091 69.3731C504.315 69.3731 497.917 75.2752 497.134 82.8441H530.493C529.71 75.2752 523.313 69.3731 515.537 69.3731H512.091Z" fill="white"/>
<path d="M635.686 211.527V188.042L682.97 171.327V170.269H635.686V158.42H686.567V181.906L639.282 198.621V199.679H686.567V211.527H635.686Z" fill="white"/>
<path d="M627.864 211.527H614.218V198.409H613.161C609.987 207.86 602.935 212.585 592.004 212.585C584.6 212.585 578.746 209.976 574.445 204.757C570.213 199.538 568.098 192.943 568.098 184.974C568.098 177.004 570.213 170.41 574.445 165.191C578.746 159.972 584.6 157.362 592.004 157.362C602.935 157.362 609.987 162.123 613.161 171.644H614.218V133.771H627.864V211.527ZM609.881 196.822C612.773 194.213 614.218 190.263 614.218 184.974C614.218 179.684 612.773 175.735 609.881 173.125C606.99 170.515 602.97 169.211 597.822 169.211C587.103 169.211 581.744 174.465 581.744 184.974C581.744 195.482 587.103 200.737 597.822 200.737C602.97 200.737 606.99 199.432 609.881 196.822Z" fill="white"/>
<path d="M550.825 149.851C549.203 151.261 547.017 151.967 544.266 151.967C541.516 151.967 539.33 151.261 537.708 149.851C536.086 148.37 535.275 146.395 535.275 143.927C535.275 141.458 536.086 139.519 537.708 138.108C539.33 136.627 541.516 135.886 544.266 135.886C546.946 135.886 549.132 136.627 550.825 138.108C552.517 139.589 553.363 141.529 553.363 143.927C553.363 146.395 552.517 148.37 550.825 149.851ZM524.062 211.527V199.679H539.083V169.528L526.918 170.269V158.42L543.843 157.362C546.523 157.221 548.568 157.856 549.978 159.266C551.389 160.677 552.094 162.687 552.094 165.296V199.679H567.115V211.527H524.062Z" fill="white"/>
<path d="M471.747 205.18C466.317 200.243 463.602 193.508 463.602 184.974C463.602 176.44 466.317 169.704 471.747 164.767C477.177 159.831 484.194 157.362 492.797 157.362C501.33 157.362 508.312 159.831 513.742 164.767C519.172 169.704 521.887 176.44 521.887 184.974C521.887 193.508 519.172 200.243 513.742 205.18C508.312 210.117 501.33 212.585 492.797 212.585C484.194 212.585 477.177 210.117 471.747 205.18ZM481.373 173.442C478.622 176.264 477.247 180.107 477.247 184.974C477.247 189.84 478.622 193.684 481.373 196.505C484.123 199.326 487.931 200.737 492.797 200.737C497.663 200.737 501.471 199.326 504.221 196.505C506.972 193.684 508.347 189.84 508.347 184.974C508.347 180.107 506.972 176.264 504.221 173.442C501.471 170.621 497.663 169.211 492.797 169.211C487.931 169.211 484.123 170.621 481.373 173.442Z" fill="white"/>
<path d="M421.372 211.527V165.72C421.372 163.04 422.077 160.994 423.487 159.584C424.968 158.173 427.049 157.503 429.729 157.574L462.415 158.42V170.269L435.018 169.528V211.527H421.372Z" fill="white"/>
<path d="M375.364 136.944C379.595 136.944 383.403 137.191 386.788 137.685C390.244 138.178 393.77 139.236 397.366 140.859C400.963 142.41 403.96 144.526 406.358 147.206C408.755 149.816 410.73 153.412 412.282 157.997C413.833 162.581 414.609 167.976 414.609 174.183C414.609 180.389 413.833 185.785 412.282 190.369C410.73 194.953 408.755 198.586 406.358 201.266C403.96 203.875 400.963 205.991 397.366 207.613C393.77 209.235 390.244 210.293 386.788 210.787C383.403 211.281 379.595 211.527 375.364 211.527H349.342V136.944H375.364ZM375.364 199.679C378.537 199.679 381.147 199.573 383.192 199.361C385.307 199.15 387.599 198.55 390.068 197.563C392.536 196.575 394.475 195.235 395.885 193.543C397.366 191.78 398.601 189.276 399.588 186.032C400.575 182.717 401.069 178.767 401.069 174.183C401.069 170.304 400.751 166.919 400.117 164.027C399.482 161.135 398.53 158.808 397.261 157.045C395.991 155.211 394.651 153.73 393.241 152.601C391.831 151.473 390.032 150.662 387.846 150.168C385.66 149.604 383.685 149.251 381.922 149.11C380.159 148.899 377.973 148.793 375.364 148.793H362.988V199.679H375.364Z" fill="white"/>
</svg>
