<svg width="268" height="282" viewBox="0 0 268 282" fill="none" xmlns="http://www.w3.org/2000/svg">
<path d="M193.969 187.104C193.914 186.213 193.85 185.483 193.825 184.754C193.812 184.353 193.803 183.973 193.429 183.713C191.096 182.114 189.508 179.832 187.881 177.602C187.357 176.881 186.817 176.463 185.88 176.48C184.701 176.497 183.875 175.687 183.028 174.992C182.972 174.949 182.93 174.889 182.891 174.829C181.827 173.328 180.43 172.595 178.553 172.356C175.534 171.972 173.265 170.266 171.745 167.609C170.706 165.796 169.693 163.967 168.645 162.154C168.501 161.903 168.254 161.57 168.024 161.544C167.807 161.523 167.496 161.813 167.33 162.043C166.483 163.22 165.72 164.461 164.826 165.6C164.362 166.193 164.303 166.743 164.545 167.37C165.503 169.874 164.533 171.128 162.855 172.42C162.021 173.064 161.046 173.524 160.139 174.083C159.343 174.574 159.274 174.898 159.934 175.55C161.348 176.945 162.812 178.284 164.222 179.683C165.129 180.579 165.933 181.577 166.853 182.459C167.926 183.487 169.05 184.464 170.204 185.398C170.451 185.598 170.953 185.624 171.285 185.539C172.886 185.125 174.508 185.095 176.143 185.142C177.514 185.18 178.489 185.641 178.898 187.117C179.592 189.607 180.435 192.051 181.171 194.529C181.716 196.363 182.197 198.218 182.691 200.069C183.147 201.779 183.594 203.494 184.02 205.213C184.952 208.996 185.876 212.783 186.783 216.574C186.923 217.154 186.953 217.764 187.008 218.361C187.085 219.176 186.825 219.884 186.327 220.541C185.688 221.39 185.757 221.795 186.693 222.324C187.366 222.703 188.094 223.1 188.839 223.219C190.972 223.556 192.773 224.575 194.514 225.744C196.013 226.751 197.508 227.77 198.964 228.836C199.47 229.207 199.981 229.663 200.283 230.197C201.003 231.463 202.123 231.941 203.455 232.257C205.141 232.657 206.798 233.182 208.45 233.719C209.974 234.214 210.83 235.451 211.549 236.782C212.571 238.684 213.533 240.616 214.58 242.505C215.121 243.486 215.296 244.471 215.117 245.576C214.904 246.872 215.117 247.103 216.42 247.103C221.452 247.103 226.489 247.162 231.521 247.051C233.705 247.005 235.885 246.616 238.061 246.335C239.5 246.147 240.935 245.9 242.361 245.64C245.891 245 249.297 243.925 252.682 242.752C254.653 242.07 256.628 241.392 258.608 240.727C260.017 240.253 261.422 239.776 262.849 239.353C263.487 239.166 264.16 239.055 264.824 238.991C267.013 238.773 268.107 240.236 267.992 242.373C267.932 243.465 267.57 244.471 266.902 245.328C265.944 246.557 264.948 247.759 263.926 248.932C260.72 252.6 256.816 255.415 252.762 258.051C249.744 260.013 246.512 261.527 243.128 262.717C241.897 263.147 240.603 263.403 239.33 263.697C238.597 263.868 238.057 264.158 237.729 264.909C237.244 266.022 236.256 266.713 235.277 267.357C232.398 269.255 229.324 270.807 226.089 271.95C224.769 272.415 223.994 273.059 223.372 274.3C222.155 276.722 220.094 278.382 217.697 279.546C216.271 280.237 214.759 280.83 213.222 281.196C211.162 281.683 209.067 282.105 206.917 281.977C206.678 281.964 206.448 281.883 206.07 281.802C206.24 281.495 206.316 281.218 206.495 281.051C206.836 280.744 207.253 280.527 207.598 280.224C207.781 280.062 207.875 279.793 208.011 279.571C207.768 279.478 207.53 279.337 207.279 279.299C207.002 279.256 206.712 279.29 206.431 279.311C202.072 279.657 197.806 279.013 193.582 278.036C190.653 277.358 187.732 276.624 184.816 275.899C184.275 275.763 183.756 275.541 183.194 275.144C183.828 274.906 184.45 274.641 185.092 274.428C187.749 273.554 190.419 272.731 193.063 271.818C194.987 271.153 196.69 270.061 198.282 268.803C198.878 268.329 198.844 267.817 198.184 267.459C197.823 267.263 197.388 267.152 196.98 267.126C196.132 267.071 195.281 267.092 194.429 267.097C188.613 267.122 182.802 267.161 176.986 267.182C159.083 267.237 141.18 267.288 123.277 267.34C123.098 267.34 122.919 267.318 122.744 267.34C119.219 267.762 116.337 266.261 113.612 264.286C113.152 263.953 112.679 263.638 112.232 263.292C111.679 262.862 111.181 262.853 110.602 263.292C108.852 264.623 107.017 265.843 105.322 267.237C101.759 270.167 97.9227 272.718 94.2143 275.447C92.1707 276.949 89.9142 277.695 87.3937 277.784C83.7832 277.912 80.1728 278.104 76.5581 278.232C76.0515 278.249 75.5065 278.126 75.0254 277.938C74.1739 277.601 73.3437 277.708 72.5262 277.951C70.3208 278.603 68.1324 279.307 65.9227 279.955C64.7689 280.292 63.5938 280.574 62.4229 280.842C62.0142 280.936 61.5757 280.962 61.1584 280.94C59.9876 280.881 59.3192 280.292 59.1744 279.115C58.919 277.072 58.6422 275.029 58.5187 272.978C58.391 270.892 58.4336 268.798 58.4123 266.708C58.4038 265.736 57.9823 265.395 56.9988 265.6C54.9168 266.03 52.8391 266.474 50.7572 266.892C50.2378 266.998 49.7056 267.062 49.1776 267.088C48.0749 267.148 47.6066 266.743 47.2021 265.706C46.887 264.892 46.4783 264.103 46.0227 263.356C45.6098 262.682 44.9669 262.439 44.1835 262.776C43.0467 263.267 41.8844 263.702 40.7732 264.243C38.159 265.523 35.4852 266.67 32.6795 267.421C30.6231 267.971 28.4858 268.141 26.3527 267.758C25.382 267.583 25.2543 267.161 25.9057 266.38C25.927 266.354 25.9525 266.329 25.978 266.303C27.3916 264.883 26.7018 264.678 25.3309 264.265C24.3474 263.97 23.3341 263.778 22.3378 263.531C19.2468 262.768 16.1515 262.004 13.0648 261.224C10.4549 260.567 7.84501 259.91 5.25214 259.206C3.81733 258.818 2.41233 258.332 0.990299 257.893C0.922177 257.872 0.845541 257.855 0.798707 257.808C0.526222 257.552 0.117494 257.33 0.0238274 257.019C-0.112415 256.562 0.364434 256.362 0.722071 256.221C2.16965 255.65 3.59594 254.988 5.09035 254.583C7.51291 253.927 9.97806 253.41 12.4389 252.894C14.7593 252.408 17.101 252.007 19.4299 251.564C20.7838 251.304 22.142 251.043 23.4916 250.749C23.994 250.638 24.7263 250.557 24.7263 249.952C24.7263 249.465 24.3346 248.924 23.9898 248.51C23.6151 248.062 22.8232 247.751 23.1042 247.107C23.283 246.702 23.977 246.42 24.4922 246.292C26.6039 245.768 28.7412 245.631 30.9211 245.921C32.9307 246.186 34.9275 246.501 36.8136 247.243C38.7849 248.02 40.7093 248.92 42.6507 249.772C43.234 250.028 43.796 250.335 44.3836 250.579C44.9924 250.83 45.1968 250.685 45.3245 250.033C45.7077 248.049 46.0653 246.062 46.4953 244.092C46.6103 243.563 46.9126 243.055 47.2021 242.586C47.5512 242.019 47.5768 241.742 47.0914 241.29C46.8359 241.051 46.5251 240.863 46.2356 240.663C44.1196 239.221 42.0973 237.673 40.5432 235.596C39.8322 234.641 39.3639 233.587 39.0957 232.427C38.9254 231.694 39.019 231.037 39.3894 230.38C39.6662 229.894 39.8791 229.365 40.0792 228.84C40.424 227.923 41.1946 227.501 42.1058 227.842C42.6635 228.051 43.2127 228.324 43.7151 228.648C45.4735 229.779 47.1723 231.003 48.9562 232.077C52.0515 233.941 55.1425 235.813 58.3272 237.515C61.5416 239.23 64.8583 240.756 68.1409 242.334C69.1286 242.808 70.1632 243.192 71.1808 243.601C71.4065 243.691 71.6577 243.759 71.9003 243.776C72.556 243.831 72.9094 243.563 72.9903 242.902C73.1946 241.281 73.4245 239.665 73.5395 238.035C73.6246 236.794 74.0674 235.839 75.1829 235.259C75.6981 234.99 75.9365 234.585 76.0515 234.014C76.6305 231.165 77.2095 228.311 77.8609 225.48C78.1547 224.204 78.589 222.959 79.002 221.714C79.3596 220.635 80.16 220.046 81.2713 219.88C81.5523 219.837 81.8418 219.786 82.1185 219.82C83.4554 219.991 84.5028 219.3 85.5885 218.707C86.0951 218.43 86.2569 218.012 86.2016 217.466C86.0951 216.442 86.0909 215.397 85.8865 214.395C85.4182 212.139 86.1249 210.301 87.6151 208.637C89.6715 206.339 91.6725 203.989 93.7034 201.669C95.6619 199.425 97.6289 197.19 99.5959 194.956C99.8045 194.717 100.056 194.508 100.26 194.265C101.12 193.241 102.18 193.181 103.347 193.604C104.628 194.073 104.616 194.06 105.446 192.985C106.199 192.004 106.881 190.968 107.919 190.226C108.481 189.825 108.741 189.198 108.843 188.49C109.146 186.387 109.508 184.289 109.81 182.182C109.929 181.342 109.98 180.489 110.027 179.64C110.095 178.386 109.912 178.194 108.737 177.84C107.724 177.533 106.715 177.188 105.74 176.77C104.301 176.152 103.44 175.034 103.202 173.469C103.113 172.872 102.989 172.271 103.01 171.673C103.045 170.769 102.717 170.13 101.997 169.588C100.188 168.223 98.7827 166.504 97.7481 164.479C97.1606 163.323 96.8157 162.111 96.7561 160.811C96.6539 158.452 97.0116 156.141 97.3053 153.816C97.663 151.001 98.2207 148.204 98.0291 145.342C97.9908 144.775 97.9482 144.207 97.8333 143.653C97.795 143.461 97.5523 143.197 97.3777 143.175C97.2031 143.154 96.9094 143.346 96.8114 143.525C95.8705 145.231 94.8189 146.899 94.0951 148.694C93.5629 150.02 93.4139 151.513 93.1882 152.946C92.7455 155.787 92.4219 158.644 91.9493 161.48C91.6385 163.336 91.085 165.135 90.2761 166.846C89.7439 167.967 88.9605 168.829 87.8833 169.473C86.6018 170.236 85.3075 170.948 83.8641 171.371C83.3532 171.52 82.9998 171.853 82.9871 172.441C82.97 173.32 82.5358 173.981 81.9312 174.569C81.3138 175.171 81.3096 175.409 81.9142 176.083C82.7188 176.979 83.5661 177.84 84.3751 178.732C85.4863 179.956 86.0568 181.38 86.1505 183.065C86.2186 184.293 86.5634 185.509 86.7465 186.733C86.887 187.663 86.8743 188.567 86.1845 189.343C85.5076 190.106 84.7753 190.337 83.813 190.034C82.3655 189.573 81.4033 188.575 80.7646 187.245C80.4751 186.643 80.2324 186.004 80.0664 185.36C79.7002 183.931 78.5209 183.3 77.4352 182.592C77.0435 182.336 76.622 182.562 76.3112 182.924C75.6683 183.671 74.9743 184.383 74.3825 185.168C74.1483 185.479 74.0163 185.952 74.0206 186.353C74.0376 187.889 73.8759 189.398 73.5097 190.891C73.3607 191.497 73.4671 192.06 73.7651 192.635C74.5741 194.205 74.9062 195.928 75.0084 197.664C75.1148 199.472 73.5906 201.336 71.8407 201.724C71.1978 201.865 70.5464 201.843 70.0185 201.404C69.4905 200.965 68.9498 200.944 68.3367 201.148C67.4171 201.455 66.6124 201.255 65.8758 200.607C64.4666 199.366 63.0105 198.18 61.6268 196.913C61.0861 196.418 60.6305 195.804 60.2431 195.173C59.9791 194.742 59.8599 194.205 59.7535 193.697C59.3064 191.608 59.234 189.479 59.1063 187.356C59.0637 186.605 58.6167 185.884 58.4166 185.133C58.2931 184.669 58.1867 184.165 58.2292 183.696C58.4293 181.517 59.1787 179.487 60.0685 177.504C60.5454 176.437 61.0307 175.375 61.5203 174.309C61.763 173.78 61.9461 173.243 61.6396 172.68C61.0222 171.537 61.018 170.296 61.0563 169.046C61.069 168.586 61.1457 168.112 61.0733 167.664C60.9967 167.195 60.8689 166.688 60.6092 166.3C59.102 164.052 58.4762 161.566 58.8125 158.921C58.9445 157.872 59.5491 156.87 60.0174 155.885C60.4134 155.053 60.9583 154.298 61.3713 153.475C61.7204 152.784 62.0398 152.063 62.2526 151.321C63.2787 147.705 64.1856 144.054 65.2883 140.463C66.11 137.789 67.1063 135.166 68.1409 132.564C68.9073 130.641 70.1334 128.977 71.5214 127.438C73.8929 124.802 76.2899 122.192 78.6231 119.522C80.3005 117.599 81.8631 115.577 83.5193 113.632C85.2436 111.611 87.019 109.627 88.7731 107.632C89.0073 107.367 89.2798 107.133 89.5097 106.864C90.3782 105.832 90.6465 105.793 89.9695 104.087C88.3133 99.9035 88.3218 95.7665 91.1787 91.975C91.2851 91.8343 91.3788 91.6807 91.5065 91.5571C92.8221 90.2605 92.9754 88.6953 92.5028 87.0277C92.043 85.3943 92.0472 83.7309 92.0515 82.0634C92.06 79.2272 93.4948 77.308 95.9429 76.0925C97.8205 75.1585 99.7832 74.4548 101.878 74.1733C102.125 74.1392 102.372 74.1008 102.61 74.0453C103.607 73.815 103.849 73.5378 103.853 72.51C103.871 69.1705 103.883 65.8354 103.883 62.4959C103.883 55.9962 103.853 49.5008 103.875 43.001C103.883 40.1606 104.002 37.3202 104.041 34.484C104.054 33.3666 104.381 32.3686 105.122 31.5583C106.893 29.6263 108.699 27.7284 110.5 25.822C110.972 25.323 111.594 25.2078 112.249 25.1865C114.446 25.1012 116.639 25.0074 118.836 24.9221C122.625 24.7728 126.414 24.6235 130.204 24.47C131.268 24.4273 131.46 24.2397 131.477 23.2204C131.489 22.5124 131.464 21.8002 131.455 21.0879C131.451 20.4269 131.183 19.9279 130.57 19.6336C130.348 19.527 130.144 19.3777 129.918 19.2711C128.773 18.7252 128.228 17.8082 128.232 16.55C128.245 13.0741 128.249 9.59398 128.279 6.11807C128.288 5.21818 128.607 4.46329 129.51 4.05386C129.987 3.83635 130.272 3.42691 130.353 2.89807C130.463 2.19435 130.91 1.9214 131.583 1.78919C134.155 1.28166 136.722 0.765609 139.277 0.181316C141.048 -0.219586 142.7 0.0874881 144.373 0.680311C146.276 1.3499 148.222 1.88728 150.146 2.49716C150.517 2.61232 150.866 2.79144 151.228 2.94071C151.781 3.16675 152.071 3.60604 152.071 4.1818C152.071 5.06464 152.42 5.75982 153.071 6.32279C153.706 6.8687 153.765 7.60653 153.748 8.36995C153.684 11.3852 153.616 14.4048 153.544 17.4201C153.535 17.7016 153.467 17.9831 153.463 18.2688C153.446 19.2455 152.943 19.8809 152.058 20.1923C151.419 20.4141 151.172 20.8448 151.151 21.4718C151.125 22.2522 151.07 23.0327 151.07 23.8132C151.07 24.5169 151.313 24.8624 151.985 25.0713C154.084 25.7153 156.196 26.3167 158.291 26.965C160.522 27.6601 162.74 28.3937 164.963 29.1102C165.435 29.2638 165.916 29.3917 166.368 29.5836C167.551 30.0869 168.624 30.7607 169.497 31.7331C170.566 32.9188 171.647 34.0916 172.741 35.2517C174.359 36.9747 175.062 39.0219 175.015 41.3676C174.989 42.5745 175.049 43.7815 175.015 44.9885C174.993 45.7818 175.321 46.2722 176.054 46.5111C176.897 46.7883 177.752 47.0186 178.578 47.3299C179.268 47.5901 179.983 47.8502 180.588 48.2597C181.763 49.0572 182.231 50.277 182.244 51.6631C182.261 53.2624 182.236 54.8575 182.223 56.4568C182.219 56.9899 182.176 57.5188 182.159 58.0519C182.006 62.9139 181.861 67.7759 181.699 72.6336C181.657 73.9131 180.975 74.6851 179.724 74.877C178.885 75.0049 178.033 75.0689 177.19 75.1627C176.066 75.2864 175.773 75.6617 175.785 76.9625C175.79 77.8326 176.066 78.0629 177.186 78.1226C180.298 78.2889 183.415 78.4339 186.527 78.6216C189.712 78.8135 192.892 79.031 196.073 79.2784C197.916 79.4234 199.385 80.4 199.858 82.4301C200.258 84.1318 199.917 85.7013 198.998 87.1045C198.202 88.32 196.869 88.4394 195.562 88.2816C193.697 88.0598 191.849 87.6888 189.984 87.4841C185.548 86.9893 181.107 86.55 176.667 86.0937C175.858 86.0127 175.602 86.2515 175.56 87.1088C175.534 87.676 175.543 88.2475 175.504 88.8105C175.428 89.8511 175.028 90.7169 174.163 91.3566C173.682 91.7149 173.231 92.1158 172.784 92.5167C171.856 93.3526 170.804 93.8985 169.531 93.8729C165.529 93.7919 161.522 93.6938 157.52 93.5999C157.273 93.5957 157.026 93.553 156.779 93.5573C156.12 93.5744 155.775 94.0009 156.137 94.4998C156.967 95.6471 156.843 96.9266 156.805 98.189C156.779 99.042 157.095 99.5836 157.806 100.014C159.871 101.277 161.45 103.025 162.778 105.034C163.621 106.305 164.601 107.482 165.427 108.762C166.806 110.907 168.113 113.099 169.446 115.27C171.225 118.17 173.014 121.066 174.776 123.975C175.492 125.156 176.164 126.363 176.85 127.561C177.676 129.003 178.8 130.163 180.124 131.148C180.154 131.17 180.183 131.187 180.213 131.208C181.469 132.146 182.572 133.17 183.253 134.671C184.496 137.418 186.476 139.665 188.545 141.819C190.116 143.457 191.747 145.039 193.361 146.63C195.145 148.387 196.733 150.264 197.55 152.695C198.172 154.541 198.385 156.435 198.248 158.358C198.18 159.322 198.406 160.039 199.091 160.738C200.326 161.996 200.82 163.591 200.594 165.331C200.479 166.202 200.692 166.88 201.263 167.468C202.348 168.59 203.421 169.724 204.562 170.782C205.712 171.844 206.517 173.111 207.117 174.531C207.266 174.885 207.445 175.294 207.394 175.648C207.206 176.949 207.619 178.101 208.126 179.244C208.956 181.099 209.335 183.052 209.097 185.057C208.871 186.989 208.564 188.925 208.079 190.802C207.547 192.853 205.158 193.314 203.728 191.748C202.864 190.806 202.527 190.895 202.059 192.136C201.748 192.964 201.454 193.808 201.029 194.576C200.471 195.578 199.709 195.851 198.602 195.6C198.257 195.523 197.925 195.395 197.584 195.288C196.797 195.045 196.243 194.576 195.911 193.787C195.498 192.81 195.409 192.844 194.374 192.896C193.459 192.938 192.526 192.955 191.624 192.84C190.346 192.674 189.784 191.817 190.07 190.55C190.44 188.916 191.509 187.914 193.088 187.432C193.356 187.351 193.633 187.292 193.901 187.211C193.961 187.193 194.004 187.121 193.995 187.129L193.969 187.104ZM134.896 247.06C134.896 247.06 134.896 247.086 134.896 247.098C142.236 247.098 149.571 247.098 156.911 247.098C157.197 247.098 157.478 247.111 157.763 247.094C158.589 247.039 158.887 246.74 158.712 245.943C158.257 243.823 158.661 241.772 159.125 239.724C159.394 238.539 159.836 237.413 160.794 236.581C161.258 236.176 161.352 235.647 161.403 235.054C161.497 234.001 161.637 232.947 161.842 231.911C162.076 230.73 162.365 229.557 162.689 228.397C163.102 226.925 163.524 225.454 164.826 224.452C165.124 224.221 165.346 223.867 165.559 223.543C166.053 222.788 166.001 222.49 165.239 221.974C164.609 221.543 164.06 221.044 163.817 220.306C163.566 219.534 163.315 218.75 163.166 217.956C162.893 216.493 162.723 215.009 162.455 213.546C161.965 210.894 161.429 208.254 160.922 205.605C160.684 204.351 160.433 203.097 160.275 201.831C160.066 200.142 159.849 198.436 161.024 196.939C161.348 196.529 161.335 196.022 161.114 195.523C160.505 194.128 159.9 192.734 159.326 191.326C158.785 190.004 158.112 188.776 157.163 187.692C154.229 184.344 150.823 181.504 147.532 178.54C146.859 177.934 146.097 177.691 145.186 177.802C142.759 178.096 140.332 178.357 137.906 178.638C135.866 178.873 133.831 179.197 131.783 179.342C129.029 179.538 126.261 179.598 123.502 179.713C122.421 179.755 122.008 179.973 121.723 181.031C121.356 182.395 121.114 183.794 120.846 185.18C120.496 186.989 120.164 188.806 119.849 190.622C119.717 191.386 119.607 192.154 119.555 192.925C119.496 193.842 119.628 194.794 119.458 195.681C119.257 196.7 119.487 197.327 120.364 197.915C121.612 198.751 121.769 199.864 120.995 201.148C120.39 202.15 119.794 203.157 119.134 204.125C116.362 208.198 113.552 212.25 110.789 216.327C108.822 219.231 106.919 222.179 104.948 225.079C104.373 225.923 104.398 226.691 104.82 227.569C105.297 228.563 105.74 229.642 105.484 230.742C105.212 231.915 105.603 232.734 106.378 233.506C106.706 233.83 107.047 234.154 107.302 234.534C107.856 235.349 108.464 236.15 108.852 237.046C109.324 238.146 109.597 239.332 109.946 240.484C110.193 241.298 110.274 242.207 110.695 242.915C111.202 243.759 111.211 244.586 111.121 245.469C110.972 246.902 111.07 247.026 112.552 247.064C112.692 247.064 112.837 247.073 112.977 247.073C120.279 247.073 127.585 247.073 134.887 247.073L134.896 247.06Z" fill="white"/>
</svg>
